<?xml version="1.0" encoding="UTF-8" standalone="no"?>
<svg style="background-color: #FFFFFF;" xmlns="http://www.w3.org/2000/svg" version="1.1" viewBox="0 0 776 1938">
<rect width="100%" height="100%" fill="#FFFFFF"/>
   <polyline fill="none" points="70,1315 270,1315" stroke="rgb(0, 0, 0)" stroke-linecap="square" stroke-width="3.0"/>
   <polyline fill="none" points="270,1475 80,1475 80,1385 270,1385" stroke="rgb(0, 0, 0)" stroke-linecap="square" stroke-width="3.0"/>
   <polyline fill="none" points="210,1065 270,1065" stroke="rgb(0, 0, 0)" stroke-linecap="square" stroke-width="3.0"/>
   <polyline fill="none" points="670,435 430,435 430,825 380,825" stroke="rgb(0, 0, 0)" stroke-linecap="square" stroke-width="3.0"/>
   <polyline fill="none" points="80,55 140,55" stroke="rgb(0, 0, 0)" stroke-linecap="square" stroke-width="3.0"/>
   <polyline fill="none" points="220,1415 220,1485 270,1485" stroke="rgb(0, 0, 0)" stroke-linecap="square" stroke-width="3.0"/>
   <polyline fill="none" points="670,405 440,405 440,1075 380,1075" stroke="rgb(0, 0, 0)" stroke-linecap="square" stroke-width="3.0"/>
   <polyline fill="none" points="270,385 230,385 230,485 230,585 230,1035 270,1035" stroke="rgb(0, 0, 0)" stroke-linecap="square" stroke-width="3.0"/>
   <polyline fill="none" points="270,1085 100,1085 100,1885 270,1885" stroke="rgb(0, 0, 0)" stroke-linecap="square" stroke-width="3.0"/>
   <polyline fill="none" points="270,1535 230,1535 230,1835 270,1835" stroke="rgb(0, 0, 0)" stroke-linecap="square" stroke-width="3.0"/>
   <polyline fill="none" points="200,215 270,215" stroke="rgb(0, 0, 0)" stroke-linecap="square" stroke-width="3.0"/>
   <polyline fill="none" points="200,1015 270,1015" stroke="rgb(0, 0, 0)" stroke-linecap="square" stroke-width="3.0"/>
   <polyline fill="none" points="270,1415 220,1415 220,1135 270,1135" stroke="rgb(0, 0, 0)" stroke-linecap="square" stroke-width="3.0"/>
   <polyline fill="none" points="270,1185 230,1185 230,1235 230,1285 230,1435 270,1435" stroke="rgb(0, 0, 0)" stroke-linecap="square" stroke-width="3.0"/>
   <polyline fill="none" points="100,835 270,835" stroke="rgb(0, 0, 0)" stroke-linecap="square" stroke-width="3.0"/>
   <polyline fill="none" points="230,1235 270,1235" stroke="rgb(0, 0, 0)" stroke-linecap="square" stroke-width="3.0"/>
   <polyline fill="none" points="270,965 80,965 80,1165 80,1385" stroke="rgb(0, 0, 0)" stroke-linecap="square" stroke-width="3.0"/>
   <polyline fill="none" points="90,525 90,1075 90,1175 270,1175" stroke="rgb(0, 0, 0)" stroke-linecap="square" stroke-width="3.0"/>
   <polyline fill="none" points="300,1875 330,1875 330,1795 350,1795" stroke="rgb(0, 0, 0)" stroke-linecap="square" stroke-width="3.0"/>
   <polyline fill="none" points="300,675 330,675 330,595 350,595" stroke="rgb(0, 0, 0)" stroke-linecap="square" stroke-width="3.0"/>
   <polyline fill="none" points="300,475 330,475 330,555 350,555" stroke="rgb(0, 0, 0)" stroke-linecap="square" stroke-width="3.0"/>
   <polyline fill="none" points="80,1475 80,1515" stroke="rgb(0, 0, 0)" stroke-linecap="square" stroke-width="3.0"/>
   <polyline fill="none" points="300,1675 330,1675 330,1755 350,1755" stroke="rgb(0, 0, 0)" stroke-linecap="square" stroke-width="3.0"/>
   <polyline fill="none" points="170,15 200,15 200,215 200,265 270,265" stroke="rgb(0, 0, 0)" stroke-linecap="square" stroke-width="3.0"/>
   <polyline fill="none" points="70,1715 70,1865 270,1865" stroke="rgb(0, 0, 0)" stroke-linecap="square" stroke-width="3.0"/>
   <polyline fill="none" points="270,515 200,515 200,665 200,715 200,1015 200,1465 270,1465" stroke="rgb(0, 0, 0)" stroke-linecap="square" stroke-width="3.0"/>
   <polyline fill="none" points="200,665 270,665" stroke="rgb(0, 0, 0)" stroke-linecap="square" stroke-width="3.0"/>
   <polyline fill="none" points="80,1165 270,1165" stroke="rgb(0, 0, 0)" stroke-linecap="square" stroke-width="3.0"/>
   <polyline fill="none" points="270,915 210,915 210,865 210,785 210,685 270,685" stroke="rgb(0, 0, 0)" stroke-linecap="square" stroke-width="3.0"/>
   <polyline fill="none" points="270,815 220,815 220,885 220,975 270,975" stroke="rgb(0, 0, 0)" stroke-linecap="square" stroke-width="3.0"/>
   <polyline fill="none" points="270,475 220,475 220,625 270,625" stroke="rgb(0, 0, 0)" stroke-linecap="square" stroke-width="3.0"/>
   <polyline fill="none" points="90,1175 90,1265 270,1265" stroke="rgb(0, 0, 0)" stroke-linecap="square" stroke-width="3.0"/>
   <polyline fill="none" points="70,615 70,765 70,1115 70,1315 70,1365 270,1365" stroke="rgb(0, 0, 0)" stroke-linecap="square" stroke-width="3.0"/>
   <polyline fill="none" points="230,1285 270,1285" stroke="rgb(0, 0, 0)" stroke-linecap="square" stroke-width="3.0"/>
   <polyline fill="none" points="230,485 270,485" stroke="rgb(0, 0, 0)" stroke-linecap="square" stroke-width="3.0"/>
   <polyline fill="none" points="270,285 100,285 100,535 100,635" stroke="rgb(0, 0, 0)" stroke-linecap="square" stroke-width="3.0"/>
   <polyline fill="none" points="300,725 330,725 330,805 350,805" stroke="rgb(0, 0, 0)" stroke-linecap="square" stroke-width="3.0"/>
   <polyline fill="none" points="300,925 330,925 330,845 350,845" stroke="rgb(0, 0, 0)" stroke-linecap="square" stroke-width="3.0"/>
   <polyline fill="none" points="670,255 410,255 410,295 390,295" stroke="rgb(0, 0, 0)" stroke-linecap="square" stroke-width="3.0"/>
   <polyline fill="none" points="70,15 70,315 70,365 70,615 270,615" stroke="rgb(0, 0, 0)" stroke-linecap="square" stroke-width="3.0"/>
   <polyline fill="none" points="380,1525 460,1525 460,225 670,225" stroke="rgb(0, 0, 0)" stroke-linecap="square" stroke-width="3.0"/>
   <polyline fill="none" points="70,315 270,315" stroke="rgb(0, 0, 0)" stroke-linecap="square" stroke-width="3.0"/>
   <polyline fill="none" points="70,1115 270,1115" stroke="rgb(0, 0, 0)" stroke-linecap="square" stroke-width="3.0"/>
   <polyline fill="none" points="270,565 210,565 210,685" stroke="rgb(0, 0, 0)" stroke-linecap="square" stroke-width="3.0"/>
   <polyline fill="none" points="200,715 270,715" stroke="rgb(0, 0, 0)" stroke-linecap="square" stroke-width="3.0"/>
   <polyline fill="none" points="270,1515 80,1515 80,1775 270,1775" stroke="rgb(0, 0, 0)" stroke-linecap="square" stroke-width="3.0"/>
   <polyline fill="none" points="80,965 80,735 270,735" stroke="rgb(0, 0, 0)" stroke-linecap="square" stroke-width="3.0"/>
   <polyline fill="none" points="210,915 210,1025 210,1065 210,1215 270,1215" stroke="rgb(0, 0, 0)" stroke-linecap="square" stroke-width="3.0"/>
   <polyline fill="none" points="270,335 220,335 220,475" stroke="rgb(0, 0, 0)" stroke-linecap="square" stroke-width="3.0"/>
   <polyline fill="none" points="270,235 90,235 90,435 90,525 270,525" stroke="rgb(0, 0, 0)" stroke-linecap="square" stroke-width="3.0"/>
   <polyline fill="none" points="200,265 200,465 270,465" stroke="rgb(0, 0, 0)" stroke-linecap="square" stroke-width="3.0"/>
   <polyline fill="none" points="80,275 80,415 270,415" stroke="rgb(0, 0, 0)" stroke-linecap="square" stroke-width="3.0"/>
   <polyline fill="none" points="90,1075 270,1075" stroke="rgb(0, 0, 0)" stroke-linecap="square" stroke-width="3.0"/>
   <polyline fill="none" points="270,1335 90,1335 90,1635 270,1635" stroke="rgb(0, 0, 0)" stroke-linecap="square" stroke-width="3.0"/>
   <polyline fill="none" points="90,435 270,435" stroke="rgb(0, 0, 0)" stroke-linecap="square" stroke-width="3.0"/>
   <polyline fill="none" points="100,535 270,535" stroke="rgb(0, 0, 0)" stroke-linecap="square" stroke-width="3.0"/>
   <polyline fill="none" points="100,935 270,935" stroke="rgb(0, 0, 0)" stroke-linecap="square" stroke-width="3.0"/>
   <polyline fill="none" points="230,1435 230,1535" stroke="rgb(0, 0, 0)" stroke-linecap="square" stroke-width="3.0"/>
   <polyline fill="none" points="270,165 210,165 210,325 270,325" stroke="rgb(0, 0, 0)" stroke-linecap="square" stroke-width="3.0"/>
   <polyline fill="none" points="220,975 220,1135" stroke="rgb(0, 0, 0)" stroke-linecap="square" stroke-width="3.0"/>
   <polyline fill="none" points="270,635 100,635 100,835 100,935 100,985 100,1085" stroke="rgb(0, 0, 0)" stroke-linecap="square" stroke-width="3.0"/>
   <polyline fill="none" points="300,1175 330,1175 330,1095 350,1095" stroke="rgb(0, 0, 0)" stroke-linecap="square" stroke-width="3.0"/>
   <polyline fill="none" points="300,975 330,975 330,1055 350,1055" stroke="rgb(0, 0, 0)" stroke-linecap="square" stroke-width="3.0"/>
   <polyline fill="none" points="170,55 210,55 210,165" stroke="rgb(0, 0, 0)" stroke-linecap="square" stroke-width="3.0"/>
   <polyline fill="none" points="70,1365 70,1565 70,1615 70,1715 270,1715" stroke="rgb(0, 0, 0)" stroke-linecap="square" stroke-width="3.0"/>
   <polyline fill="none" points="210,1215 210,1585 210,1665 210,1735 270,1735" stroke="rgb(0, 0, 0)" stroke-linecap="square" stroke-width="3.0"/>
   <polyline fill="none" points="70,365 270,365" stroke="rgb(0, 0, 0)" stroke-linecap="square" stroke-width="3.0"/>
   <polyline fill="none" points="70,1565 270,1565" stroke="rgb(0, 0, 0)" stroke-linecap="square" stroke-width="3.0"/>
   <polyline fill="none" points="70,765 270,765" stroke="rgb(0, 0, 0)" stroke-linecap="square" stroke-width="3.0"/>
   <polyline fill="none" points="210,1025 270,1025" stroke="rgb(0, 0, 0)" stroke-linecap="square" stroke-width="3.0"/>
   <polyline fill="none" points="210,1585 270,1585" stroke="rgb(0, 0, 0)" stroke-linecap="square" stroke-width="3.0"/>
   <polyline fill="none" points="210,1665 270,1665" stroke="rgb(0, 0, 0)" stroke-linecap="square" stroke-width="3.0"/>
   <polyline fill="none" points="210,785 270,785" stroke="rgb(0, 0, 0)" stroke-linecap="square" stroke-width="3.0"/>
   <polyline fill="none" points="210,865 270,865" stroke="rgb(0, 0, 0)" stroke-linecap="square" stroke-width="3.0"/>
   <polyline fill="none" points="80,415 80,735" stroke="rgb(0, 0, 0)" stroke-linecap="square" stroke-width="3.0"/>
   <polyline fill="none" points="90,1265 90,1335" stroke="rgb(0, 0, 0)" stroke-linecap="square" stroke-width="3.0"/>
   <polyline fill="none" points="220,885 270,885" stroke="rgb(0, 0, 0)" stroke-linecap="square" stroke-width="3.0"/>
   <polyline fill="none" points="370,1925 480,1925 480,465 670,465" stroke="rgb(0, 0, 0)" stroke-linecap="square" stroke-width="3.0"/>
   <polyline fill="none" points="170,135 230,135 230,185 230,385" stroke="rgb(0, 0, 0)" stroke-linecap="square" stroke-width="3.0"/>
   <polyline fill="none" points="90,95 90,235" stroke="rgb(0, 0, 0)" stroke-linecap="square" stroke-width="3.0"/>
   <polyline fill="none" points="270,1815 90,1815 90,1685 270,1685" stroke="rgb(0, 0, 0)" stroke-linecap="square" stroke-width="3.0"/>
   <polyline fill="none" points="230,1035 230,1185" stroke="rgb(0, 0, 0)" stroke-linecap="square" stroke-width="3.0"/>
   <polyline fill="none" points="100,985 270,985" stroke="rgb(0, 0, 0)" stroke-linecap="square" stroke-width="3.0"/>
   <polyline fill="none" points="100,135 140,135" stroke="rgb(0, 0, 0)" stroke-linecap="square" stroke-width="3.0"/>
   <polyline fill="none" points="230,185 270,185" stroke="rgb(0, 0, 0)" stroke-linecap="square" stroke-width="3.0"/>
   <polyline fill="none" points="230,585 270,585" stroke="rgb(0, 0, 0)" stroke-linecap="square" stroke-width="3.0"/>
   <polyline fill="none" points="380,575 420,575 420,285 670,285" stroke="rgb(0, 0, 0)" stroke-linecap="square" stroke-width="3.0"/>
   <polyline fill="none" points="380,1775 470,1775 470,195 670,195" stroke="rgb(0, 0, 0)" stroke-linecap="square" stroke-width="3.0"/>
   <polyline fill="none" points="380,1295 450,1295 450,375 670,375" stroke="rgb(0, 0, 0)" stroke-linecap="square" stroke-width="3.0"/>
   <polyline fill="none" points="300,1225 330,1225 330,1275 350,1275" stroke="rgb(0, 0, 0)" stroke-linecap="square" stroke-width="3.0"/>
   <polyline fill="none" points="300,1625 330,1625 330,1545 350,1545" stroke="rgb(0, 0, 0)" stroke-linecap="square" stroke-width="3.0"/>
   <polyline fill="none" points="200,1465 200,1765 270,1765" stroke="rgb(0, 0, 0)" stroke-linecap="square" stroke-width="3.0"/>
   <polyline fill="none" points="220,1485 220,1785 270,1785" stroke="rgb(0, 0, 0)" stroke-linecap="square" stroke-width="3.0"/>
   <polyline fill="none" points="300,1425 330,1425 330,1505 350,1505" stroke="rgb(0, 0, 0)" stroke-linecap="square" stroke-width="3.0"/>
   <polyline fill="none" points="90,1635 90,1685" stroke="rgb(0, 0, 0)" stroke-linecap="square" stroke-width="3.0"/>
   <polyline fill="none" points="200,465 200,515" stroke="rgb(0, 0, 0)" stroke-linecap="square" stroke-width="3.0"/>
   <polyline fill="none" points="210,325 210,565" stroke="rgb(0, 0, 0)" stroke-linecap="square" stroke-width="3.0"/>
   <polyline fill="none" points="170,95 220,95 220,335" stroke="rgb(0, 0, 0)" stroke-linecap="square" stroke-width="3.0"/>
   <polyline fill="none" points="70,1615 270,1615" stroke="rgb(0, 0, 0)" stroke-linecap="square" stroke-width="3.0"/>
   <polyline fill="none" points="220,625 220,815" stroke="rgb(0, 0, 0)" stroke-linecap="square" stroke-width="3.0"/>
   <polyline fill="none" points="350,1315 330,1315 330,1375 300,1375" stroke="rgb(0, 0, 0)" stroke-linecap="square" stroke-width="3.0"/>
   <circle cx="210.0" cy="915.0" fill="rgb(0, 0, 0)" r="5.0" stroke="none" stroke-width="3.0"/>
   <circle cx="200.0" cy="715.0" fill="rgb(0, 0, 0)" r="5.0" stroke="none" stroke-width="3.0"/>
   <circle cx="200.0" cy="215.0" fill="rgb(0, 0, 0)" r="5.0" stroke="none" stroke-width="3.0"/>
   <circle cx="220.0" cy="1135.0" fill="rgb(0, 0, 0)" r="5.0" stroke="none" stroke-width="3.0"/>
   <circle cx="220.0" cy="625.0" fill="rgb(0, 0, 0)" r="5.0" stroke="none" stroke-width="3.0"/>
   <circle cx="80.0" cy="1385.0" fill="rgb(0, 0, 0)" r="5.0" stroke="none" stroke-width="3.0"/>
   <circle cx="90.0" cy="1075.0" fill="rgb(0, 0, 0)" r="5.0" stroke="none" stroke-width="3.0"/>
   <circle cx="70.0" cy="1715.0" fill="rgb(0, 0, 0)" r="5.0" stroke="none" stroke-width="3.0"/>
   <circle cx="100.0" cy="285.0" fill="rgb(0, 0, 0)" r="5.0" stroke="none" stroke-width="3.0"/>
   <circle cx="200.0" cy="265.0" fill="rgb(0, 0, 0)" r="5.0" stroke="none" stroke-width="3.0"/>
   <circle cx="90.0" cy="95.0" fill="rgb(0, 0, 0)" r="5.0" stroke="none" stroke-width="3.0"/>
   <circle cx="90.0" cy="1635.0" fill="rgb(0, 0, 0)" r="5.0" stroke="none" stroke-width="3.0"/>
   <circle cx="80.0" cy="415.0" fill="rgb(0, 0, 0)" r="5.0" stroke="none" stroke-width="3.0"/>
   <circle cx="230.0" cy="385.0" fill="rgb(0, 0, 0)" r="5.0" stroke="none" stroke-width="3.0"/>
   <circle cx="100.0" cy="835.0" fill="rgb(0, 0, 0)" r="5.0" stroke="none" stroke-width="3.0"/>
   <circle cx="210.0" cy="1025.0" fill="rgb(0, 0, 0)" r="5.0" stroke="none" stroke-width="3.0"/>
   <circle cx="80.0" cy="1475.0" fill="rgb(0, 0, 0)" r="5.0" stroke="none" stroke-width="3.0"/>
   <circle cx="80.0" cy="965.0" fill="rgb(0, 0, 0)" r="5.0" stroke="none" stroke-width="3.0"/>
   <circle cx="230.0" cy="1435.0" fill="rgb(0, 0, 0)" r="5.0" stroke="none" stroke-width="3.0"/>
   <circle cx="70.0" cy="765.0" fill="rgb(0, 0, 0)" r="5.0" stroke="none" stroke-width="3.0"/>
   <circle cx="90.0" cy="1685.0" fill="rgb(0, 0, 0)" r="5.0" stroke="none" stroke-width="3.0"/>
   <circle cx="90.0" cy="1175.0" fill="rgb(0, 0, 0)" r="5.0" stroke="none" stroke-width="3.0"/>
   <circle cx="210.0" cy="1065.0" fill="rgb(0, 0, 0)" r="5.0" stroke="none" stroke-width="3.0"/>
   <circle cx="80.0" cy="1515.0" fill="rgb(0, 0, 0)" r="5.0" stroke="none" stroke-width="3.0"/>
   <circle cx="70.0" cy="1315.0" fill="rgb(0, 0, 0)" r="5.0" stroke="none" stroke-width="3.0"/>
   <circle cx="210.0" cy="1585.0" fill="rgb(0, 0, 0)" r="5.0" stroke="none" stroke-width="3.0"/>
   <circle cx="210.0" cy="565.0" fill="rgb(0, 0, 0)" r="5.0" stroke="none" stroke-width="3.0"/>
   <circle cx="70.0" cy="315.0" fill="rgb(0, 0, 0)" r="5.0" stroke="none" stroke-width="3.0"/>
   <circle cx="230.0" cy="485.0" fill="rgb(0, 0, 0)" r="5.0" stroke="none" stroke-width="3.0"/>
   <circle cx="100.0" cy="935.0" fill="rgb(0, 0, 0)" r="5.0" stroke="none" stroke-width="3.0"/>
   <circle cx="70.0" cy="1365.0" fill="rgb(0, 0, 0)" r="5.0" stroke="none" stroke-width="3.0"/>
   <circle cx="90.0" cy="235.0" fill="rgb(0, 0, 0)" r="5.0" stroke="none" stroke-width="3.0"/>
   <circle cx="220.0" cy="815.0" fill="rgb(0, 0, 0)" r="5.0" stroke="none" stroke-width="3.0"/>
   <circle cx="90.0" cy="1265.0" fill="rgb(0, 0, 0)" r="5.0" stroke="none" stroke-width="3.0"/>
   <circle cx="230.0" cy="1535.0" fill="rgb(0, 0, 0)" r="5.0" stroke="none" stroke-width="3.0"/>
   <circle cx="230.0" cy="1035.0" fill="rgb(0, 0, 0)" r="5.0" stroke="none" stroke-width="3.0"/>
   <circle cx="70.0" cy="365.0" fill="rgb(0, 0, 0)" r="5.0" stroke="none" stroke-width="3.0"/>
   <circle cx="80.0" cy="55.0" fill="rgb(0, 0, 0)" r="5.0" stroke="none" stroke-width="3.0"/>
   <circle cx="210.0" cy="1665.0" fill="rgb(0, 0, 0)" r="5.0" stroke="none" stroke-width="3.0"/>
   <circle cx="200.0" cy="1465.0" fill="rgb(0, 0, 0)" r="5.0" stroke="none" stroke-width="3.0"/>
   <circle cx="220.0" cy="335.0" fill="rgb(0, 0, 0)" r="5.0" stroke="none" stroke-width="3.0"/>
   <circle cx="100.0" cy="985.0" fill="rgb(0, 0, 0)" r="5.0" stroke="none" stroke-width="3.0"/>
   <circle cx="200.0" cy="465.0" fill="rgb(0, 0, 0)" r="5.0" stroke="none" stroke-width="3.0"/>
   <circle cx="210.0" cy="165.0" fill="rgb(0, 0, 0)" r="5.0" stroke="none" stroke-width="3.0"/>
   <circle cx="220.0" cy="885.0" fill="rgb(0, 0, 0)" r="5.0" stroke="none" stroke-width="3.0"/>
   <circle cx="210.0" cy="685.0" fill="rgb(0, 0, 0)" r="5.0" stroke="none" stroke-width="3.0"/>
   <circle cx="90.0" cy="1335.0" fill="rgb(0, 0, 0)" r="5.0" stroke="none" stroke-width="3.0"/>
   <circle cx="230.0" cy="585.0" fill="rgb(0, 0, 0)" r="5.0" stroke="none" stroke-width="3.0"/>
   <circle cx="220.0" cy="1415.0" fill="rgb(0, 0, 0)" r="5.0" stroke="none" stroke-width="3.0"/>
   <circle cx="210.0" cy="1215.0" fill="rgb(0, 0, 0)" r="5.0" stroke="none" stroke-width="3.0"/>
   <circle cx="200.0" cy="1015.0" fill="rgb(0, 0, 0)" r="5.0" stroke="none" stroke-width="3.0"/>
   <circle cx="100.0" cy="535.0" fill="rgb(0, 0, 0)" r="5.0" stroke="none" stroke-width="3.0"/>
   <circle cx="200.0" cy="515.0" fill="rgb(0, 0, 0)" r="5.0" stroke="none" stroke-width="3.0"/>
   <circle cx="80.0" cy="1165.0" fill="rgb(0, 0, 0)" r="5.0" stroke="none" stroke-width="3.0"/>
   <circle cx="100.0" cy="1085.0" fill="rgb(0, 0, 0)" r="5.0" stroke="none" stroke-width="3.0"/>
   <circle cx="220.0" cy="1485.0" fill="rgb(0, 0, 0)" r="5.0" stroke="none" stroke-width="3.0"/>
   <circle cx="220.0" cy="975.0" fill="rgb(0, 0, 0)" r="5.0" stroke="none" stroke-width="3.0"/>
   <circle cx="230.0" cy="1185.0" fill="rgb(0, 0, 0)" r="5.0" stroke="none" stroke-width="3.0"/>
   <circle cx="210.0" cy="785.0" fill="rgb(0, 0, 0)" r="5.0" stroke="none" stroke-width="3.0"/>
   <circle cx="220.0" cy="475.0" fill="rgb(0, 0, 0)" r="5.0" stroke="none" stroke-width="3.0"/>
   <circle cx="70.0" cy="15.0" fill="rgb(0, 0, 0)" r="5.0" stroke="none" stroke-width="3.0"/>
   <circle cx="80.0" cy="735.0" fill="rgb(0, 0, 0)" r="5.0" stroke="none" stroke-width="3.0"/>
   <circle cx="230.0" cy="185.0" fill="rgb(0, 0, 0)" r="5.0" stroke="none" stroke-width="3.0"/>
   <circle cx="70.0" cy="1565.0" fill="rgb(0, 0, 0)" r="5.0" stroke="none" stroke-width="3.0"/>
   <circle cx="100.0" cy="635.0" fill="rgb(0, 0, 0)" r="5.0" stroke="none" stroke-width="3.0"/>
   <circle cx="90.0" cy="435.0" fill="rgb(0, 0, 0)" r="5.0" stroke="none" stroke-width="3.0"/>
   <circle cx="100.0" cy="135.0" fill="rgb(0, 0, 0)" r="5.0" stroke="none" stroke-width="3.0"/>
   <circle cx="230.0" cy="1235.0" fill="rgb(0, 0, 0)" r="5.0" stroke="none" stroke-width="3.0"/>
   <circle cx="210.0" cy="325.0" fill="rgb(0, 0, 0)" r="5.0" stroke="none" stroke-width="3.0"/>
   <circle cx="80.0" cy="275.0" fill="rgb(0, 0, 0)" r="5.0" stroke="none" stroke-width="3.0"/>
   <circle cx="70.0" cy="1615.0" fill="rgb(0, 0, 0)" r="5.0" stroke="none" stroke-width="3.0"/>
   <circle cx="210.0" cy="865.0" fill="rgb(0, 0, 0)" r="5.0" stroke="none" stroke-width="3.0"/>
   <circle cx="200.0" cy="665.0" fill="rgb(0, 0, 0)" r="5.0" stroke="none" stroke-width="3.0"/>
   <circle cx="70.0" cy="1115.0" fill="rgb(0, 0, 0)" r="5.0" stroke="none" stroke-width="3.0"/>
   <circle cx="230.0" cy="1285.0" fill="rgb(0, 0, 0)" r="5.0" stroke="none" stroke-width="3.0"/>
   <circle cx="70.0" cy="615.0" fill="rgb(0, 0, 0)" r="5.0" stroke="none" stroke-width="3.0"/>
   <circle cx="90.0" cy="525.0" fill="rgb(0, 0, 0)" r="5.0" stroke="none" stroke-width="3.0"/>
   <polyline fill="none" points="55,75 60,75 90,75 90,95 140,95" stroke="rgb(0, 0, 0)" stroke-linecap="square" stroke-width="3.0"/>
   <polygon fill="none" points="21,66 45,66 55,75 45,84 21,84" stroke="rgb(0, 0, 0)" stroke-linecap="square" stroke-width="2.0"/>
   <text fill="rgb(0, 0, 0)" font-family="Monospaced" font-size="12" x="26.0" y="81.0">x1</text>
   <text fill="rgb(0, 0, 0)" font-family="Monospaced" font-size="16" font-weight="bold" x="6.0" y="82.0">C</text>
   <circle cx="60.0" cy="75.0" fill="rgb(0, 0, 0)" r="2.0" stroke="none" stroke-width="2.0"/>
   <polyline fill="none" points="55,105 60,105 100,105 100,135 100,285" stroke="rgb(0, 0, 0)" stroke-linecap="square" stroke-width="3.0"/>
   <polygon fill="none" points="21,96 45,96 55,105 45,114 21,114" stroke="rgb(0, 0, 0)" stroke-linecap="square" stroke-width="2.0"/>
   <text fill="rgb(0, 0, 0)" font-family="Monospaced" font-size="12" x="26.0" y="111.0">x1</text>
   <text fill="rgb(0, 0, 0)" font-family="Monospaced" font-size="16" font-weight="bold" x="5.0" y="112.0">D</text>
   <circle cx="60.0" cy="105.0" fill="rgb(0, 0, 0)" r="2.0" stroke="none" stroke-width="2.0"/>
   <polyline fill="none" points="55,15 60,15 70,15 140,15" stroke="rgb(0, 0, 0)" stroke-linecap="square" stroke-width="3.0"/>
   <polygon fill="none" points="21,6 45,6 55,15 45,24 21,24" stroke="rgb(0, 0, 0)" stroke-linecap="square" stroke-width="2.0"/>
   <text fill="rgb(0, 0, 0)" font-family="Monospaced" font-size="12" x="26.0" y="21.0">x1</text>
   <text fill="rgb(0, 0, 0)" font-family="Monospaced" font-size="16" font-weight="bold" x="6.0" y="22.0">A</text>
   <circle cx="60.0" cy="15.0" fill="rgb(0, 0, 0)" r="2.0" stroke="none" stroke-width="2.0"/>
   <polyline fill="none" points="55,45 60,45 80,45 80,55 80,275 270,275" stroke="rgb(0, 0, 0)" stroke-linecap="square" stroke-width="3.0"/>
   <polygon fill="none" points="21,36 45,36 55,45 45,54 21,54" stroke="rgb(0, 0, 0)" stroke-linecap="square" stroke-width="2.0"/>
   <text fill="rgb(0, 0, 0)" font-family="Monospaced" font-size="12" x="26.0" y="51.0">x1</text>
   <text fill="rgb(0, 0, 0)" font-family="Monospaced" font-size="16" font-weight="bold" x="6.0" y="52.0">B</text>
   <circle cx="60.0" cy="45.0" fill="rgb(0, 0, 0)" r="2.0" stroke="none" stroke-width="2.0"/>
   <text fill="rgb(0, 0, 0)" font-family="Monospaced" font-size="12" x="360.0" y="1929.0">0</text>
   <circle cx="370.0" cy="1925.0" fill="rgb(0, 0, 0)" r="2.0" stroke="none" stroke-width="1.0"/>
   <polyline fill="none" points="674,195 671,195" stroke="rgb(0, 0, 0)" stroke-linecap="square" stroke-width="3.0"/>
   <polygon fill="none" points="676,186 700,186 710,195 700,204 676,204" stroke="rgb(0, 0, 0)" stroke-linecap="square" stroke-width="2.0"/>
   <text fill="rgb(0, 0, 0)" font-family="Monospaced" font-size="12" x="676.0" y="201.0">x1</text>
   <text fill="rgb(0, 0, 0)" font-family="Monospaced" font-size="16" font-weight="bold" x="712.0" y="202.0">up1</text>
   <circle cx="670.0" cy="195.0" fill="rgb(0, 0, 0)" r="2.0" stroke="none" stroke-width="2.0"/>
   <polyline fill="none" points="674,225 671,225" stroke="rgb(0, 0, 0)" stroke-linecap="square" stroke-width="3.0"/>
   <polygon fill="none" points="676,216 700,216 710,225 700,234 676,234" stroke="rgb(0, 0, 0)" stroke-linecap="square" stroke-width="2.0"/>
   <text fill="rgb(0, 0, 0)" font-family="Monospaced" font-size="12" x="676.0" y="231.0">x1</text>
   <text fill="rgb(0, 0, 0)" font-family="Monospaced" font-size="16" font-weight="bold" x="712.0" y="232.0">up2</text>
   <circle cx="670.0" cy="225.0" fill="rgb(0, 0, 0)" r="2.0" stroke="none" stroke-width="2.0"/>
   <polyline fill="none" points="674,255 671,255" stroke="rgb(0, 0, 0)" stroke-linecap="square" stroke-width="3.0"/>
   <polygon fill="none" points="676,246 700,246 710,255 700,264 676,264" stroke="rgb(0, 0, 0)" stroke-linecap="square" stroke-width="2.0"/>
   <text fill="rgb(0, 0, 0)" font-family="Monospaced" font-size="12" x="676.0" y="261.0">x1</text>
   <text fill="rgb(0, 0, 0)" font-family="Monospaced" font-size="16" font-weight="bold" x="712.0" y="262.0">up3</text>
   <circle cx="670.0" cy="255.0" fill="rgb(0, 0, 0)" r="2.0" stroke="none" stroke-width="2.0"/>
   <polyline fill="none" points="674,285 671,285" stroke="rgb(0, 0, 0)" stroke-linecap="square" stroke-width="3.0"/>
   <polygon fill="none" points="676,276 700,276 710,285 700,294 676,294" stroke="rgb(0, 0, 0)" stroke-linecap="square" stroke-width="2.0"/>
   <text fill="rgb(0, 0, 0)" font-family="Monospaced" font-size="12" x="676.0" y="291.0">x1</text>
   <text fill="rgb(0, 0, 0)" font-family="Monospaced" font-size="16" font-weight="bold" x="712.0" y="292.0">up4</text>
   <circle cx="670.0" cy="285.0" fill="rgb(0, 0, 0)" r="2.0" stroke="none" stroke-width="2.0"/>
   <polyline fill="none" points="674,375 671,375" stroke="rgb(0, 0, 0)" stroke-linecap="square" stroke-width="3.0"/>
   <polygon fill="none" points="676,366 700,366 710,375 700,384 676,384" stroke="rgb(0, 0, 0)" stroke-linecap="square" stroke-width="2.0"/>
   <text fill="rgb(0, 0, 0)" font-family="Monospaced" font-size="12" x="676.0" y="381.0">x1</text>
   <text fill="rgb(0, 0, 0)" font-family="Monospaced" font-size="16" font-weight="bold" x="712.0" y="382.0">down1</text>
   <circle cx="670.0" cy="375.0" fill="rgb(0, 0, 0)" r="2.0" stroke="none" stroke-width="2.0"/>
   <polyline fill="none" points="674,405 671,405" stroke="rgb(0, 0, 0)" stroke-linecap="square" stroke-width="3.0"/>
   <polygon fill="none" points="676,396 700,396 710,405 700,414 676,414" stroke="rgb(0, 0, 0)" stroke-linecap="square" stroke-width="2.0"/>
   <text fill="rgb(0, 0, 0)" font-family="Monospaced" font-size="12" x="676.0" y="411.0">x1</text>
   <text fill="rgb(0, 0, 0)" font-family="Monospaced" font-size="16" font-weight="bold" x="712.0" y="412.0">down2</text>
   <circle cx="670.0" cy="405.0" fill="rgb(0, 0, 0)" r="2.0" stroke="none" stroke-width="2.0"/>
   <polyline fill="none" points="674,435 671,435" stroke="rgb(0, 0, 0)" stroke-linecap="square" stroke-width="3.0"/>
   <polygon fill="none" points="676,426 700,426 710,435 700,444 676,444" stroke="rgb(0, 0, 0)" stroke-linecap="square" stroke-width="2.0"/>
   <text fill="rgb(0, 0, 0)" font-family="Monospaced" font-size="12" x="676.0" y="441.0">x1</text>
   <text fill="rgb(0, 0, 0)" font-family="Monospaced" font-size="16" font-weight="bold" x="712.0" y="442.0">down3</text>
   <circle cx="670.0" cy="435.0" fill="rgb(0, 0, 0)" r="2.0" stroke="none" stroke-width="2.0"/>
   <polyline fill="none" points="674,465 671,465" stroke="rgb(0, 0, 0)" stroke-linecap="square" stroke-width="3.0"/>
   <polygon fill="none" points="676,456 700,456 710,465 700,474 676,474" stroke="rgb(0, 0, 0)" stroke-linecap="square" stroke-width="2.0"/>
   <text fill="rgb(0, 0, 0)" font-family="Monospaced" font-size="12" x="676.0" y="471.0">x1</text>
   <text fill="rgb(0, 0, 0)" font-family="Monospaced" font-size="16" font-weight="bold" x="712.0" y="472.0">down4</text>
   <circle cx="670.0" cy="465.0" fill="rgb(0, 0, 0)" r="2.0" stroke="none" stroke-width="2.0"/>
   <polyline fill="none" points="160,55 141,48 141,62 160,55" stroke="rgb(0, 0, 0)" stroke-linecap="square" stroke-width="2.0"/>
   <circle cx="165.0" cy="55.0" fill="none" r="4.5" stroke="rgb(0, 0, 0)" stroke-width="2.0"/>
   <circle cx="170.0" cy="55.0" fill="rgb(0, 0, 0)" r="2.0" stroke="none" stroke-width="2.0"/>
   <circle cx="140.0" cy="55.0" fill="rgb(0, 0, 0)" r="2.0" stroke="none" stroke-width="2.0"/>
   <polyline fill="none" points="160,95 141,88 141,102 160,95" stroke="rgb(0, 0, 0)" stroke-linecap="square" stroke-width="2.0"/>
   <circle cx="165.0" cy="95.0" fill="none" r="4.5" stroke="rgb(0, 0, 0)" stroke-width="2.0"/>
   <circle cx="170.0" cy="95.0" fill="rgb(0, 0, 0)" r="2.0" stroke="none" stroke-width="2.0"/>
   <circle cx="140.0" cy="95.0" fill="rgb(0, 0, 0)" r="2.0" stroke="none" stroke-width="2.0"/>
   <polyline fill="none" points="160,135 141,128 141,142 160,135" stroke="rgb(0, 0, 0)" stroke-linecap="square" stroke-width="2.0"/>
   <circle cx="165.0" cy="135.0" fill="none" r="4.5" stroke="rgb(0, 0, 0)" stroke-width="2.0"/>
   <circle cx="170.0" cy="135.0" fill="rgb(0, 0, 0)" r="2.0" stroke="none" stroke-width="2.0"/>
   <circle cx="140.0" cy="135.0" fill="rgb(0, 0, 0)" r="2.0" stroke="none" stroke-width="2.0"/>
   <polyline fill="none" points="160,15 141,8 141,22 160,15" stroke="rgb(0, 0, 0)" stroke-linecap="square" stroke-width="2.0"/>
   <circle cx="165.0" cy="15.0" fill="none" r="4.5" stroke="rgb(0, 0, 0)" stroke-width="2.0"/>
   <circle cx="170.0" cy="15.0" fill="rgb(0, 0, 0)" r="2.0" stroke="none" stroke-width="2.0"/>
   <circle cx="140.0" cy="15.0" fill="rgb(0, 0, 0)" r="2.0" stroke="none" stroke-width="2.0"/>
   <path d="M285.0,990.0 A15.0,15.0 90.0 0,0 285.0,960.0" fill="none" stroke="rgb(0, 0, 0)" stroke-width="2.0"/>
   <polyline fill="none" points="285,960 271,960 271,990 285,990" stroke="rgb(0, 0, 0)" stroke-linecap="square" stroke-width="2.0"/>
   <path d="M285.0,1040.0 A15.0,15.0 90.0 0,0 285.0,1010.0" fill="none" stroke="rgb(0, 0, 0)" stroke-width="2.0"/>
   <polyline fill="none" points="285,1010 271,1010 271,1040 285,1040" stroke="rgb(0, 0, 0)" stroke-linecap="square" stroke-width="2.0"/>
   <path d="M285.0,1090.0 A15.0,15.0 90.0 0,0 285.0,1060.0" fill="none" stroke="rgb(0, 0, 0)" stroke-width="2.0"/>
   <polyline fill="none" points="285,1060 271,1060 271,1090 285,1090" stroke="rgb(0, 0, 0)" stroke-linecap="square" stroke-width="2.0"/>
   <path d="M285.0,1140.0 A15.0,15.0 90.0 0,0 285.0,1110.0" fill="none" stroke="rgb(0, 0, 0)" stroke-width="2.0"/>
   <polyline fill="none" points="285,1110 271,1110 271,1140 285,1140" stroke="rgb(0, 0, 0)" stroke-linecap="square" stroke-width="2.0"/>
   <path d="M285.0,1190.0 A15.0,15.0 90.0 0,0 285.0,1160.0" fill="none" stroke="rgb(0, 0, 0)" stroke-width="2.0"/>
   <polyline fill="none" points="285,1160 271,1160 271,1190 285,1190" stroke="rgb(0, 0, 0)" stroke-linecap="square" stroke-width="2.0"/>
   <path d="M285.0,1240.0 A15.0,15.0 90.0 0,0 285.0,1210.0" fill="none" stroke="rgb(0, 0, 0)" stroke-width="2.0"/>
   <polyline fill="none" points="285,1210 271,1210 271,1240 285,1240" stroke="rgb(0, 0, 0)" stroke-linecap="square" stroke-width="2.0"/>
   <path d="M285.0,1290.0 A15.0,15.0 90.0 0,0 285.0,1260.0" fill="none" stroke="rgb(0, 0, 0)" stroke-width="2.0"/>
   <polyline fill="none" points="285,1260 271,1260 271,1290 285,1290" stroke="rgb(0, 0, 0)" stroke-linecap="square" stroke-width="2.0"/>
   <path d="M285.0,1340.0 A15.0,15.0 90.0 0,0 285.0,1310.0" fill="none" stroke="rgb(0, 0, 0)" stroke-width="2.0"/>
   <polyline fill="none" points="285,1310 271,1310 271,1340 285,1340" stroke="rgb(0, 0, 0)" stroke-linecap="square" stroke-width="2.0"/>
   <path d="M285.0,1390.0 A15.0,15.0 90.0 0,0 285.0,1360.0" fill="none" stroke="rgb(0, 0, 0)" stroke-width="2.0"/>
   <polyline fill="none" points="285,1360 271,1360 271,1390 285,1390" stroke="rgb(0, 0, 0)" stroke-linecap="square" stroke-width="2.0"/>
   <path d="M285.0,1440.0 A15.0,15.0 90.0 0,0 285.0,1410.0" fill="none" stroke="rgb(0, 0, 0)" stroke-width="2.0"/>
   <polyline fill="none" points="285,1410 271,1410 271,1440 285,1440" stroke="rgb(0, 0, 0)" stroke-linecap="square" stroke-width="2.0"/>
   <path d="M285.0,1490.0 A15.0,15.0 90.0 0,0 285.0,1460.0" fill="none" stroke="rgb(0, 0, 0)" stroke-width="2.0"/>
   <polyline fill="none" points="285,1460 271,1460 271,1490 285,1490" stroke="rgb(0, 0, 0)" stroke-linecap="square" stroke-width="2.0"/>
   <path d="M285.0,1540.0 A15.0,15.0 90.0 0,0 285.0,1510.0" fill="none" stroke="rgb(0, 0, 0)" stroke-width="2.0"/>
   <polyline fill="none" points="285,1510 271,1510 271,1540 285,1540" stroke="rgb(0, 0, 0)" stroke-linecap="square" stroke-width="2.0"/>
   <path d="M285.0,1590.0 A15.0,15.0 90.0 0,0 285.0,1560.0" fill="none" stroke="rgb(0, 0, 0)" stroke-width="2.0"/>
   <polyline fill="none" points="285,1560 271,1560 271,1590 285,1590" stroke="rgb(0, 0, 0)" stroke-linecap="square" stroke-width="2.0"/>
   <path d="M285.0,1640.0 A15.0,15.0 90.0 0,0 285.0,1610.0" fill="none" stroke="rgb(0, 0, 0)" stroke-width="2.0"/>
   <polyline fill="none" points="285,1610 271,1610 271,1640 285,1640" stroke="rgb(0, 0, 0)" stroke-linecap="square" stroke-width="2.0"/>
   <path d="M285.0,1690.0 A15.0,15.0 90.0 0,0 285.0,1660.0" fill="none" stroke="rgb(0, 0, 0)" stroke-width="2.0"/>
   <polyline fill="none" points="285,1660 271,1660 271,1690 285,1690" stroke="rgb(0, 0, 0)" stroke-linecap="square" stroke-width="2.0"/>
   <path d="M285.0,1740.0 A15.0,15.0 90.0 0,0 285.0,1710.0" fill="none" stroke="rgb(0, 0, 0)" stroke-width="2.0"/>
   <polyline fill="none" points="285,1710 271,1710 271,1740 285,1740" stroke="rgb(0, 0, 0)" stroke-linecap="square" stroke-width="2.0"/>
   <path d="M285.0,1790.0 A15.0,15.0 90.0 0,0 285.0,1760.0" fill="none" stroke="rgb(0, 0, 0)" stroke-width="2.0"/>
   <polyline fill="none" points="285,1760 271,1760 271,1790 285,1790" stroke="rgb(0, 0, 0)" stroke-linecap="square" stroke-width="2.0"/>
   <path d="M285.0,1840.0 A15.0,15.0 90.0 0,0 285.0,1810.0" fill="none" stroke="rgb(0, 0, 0)" stroke-width="2.0"/>
   <polyline fill="none" points="285,1810 271,1810 271,1840 285,1840" stroke="rgb(0, 0, 0)" stroke-linecap="square" stroke-width="2.0"/>
   <path d="M285.0,1890.0 A15.0,15.0 90.0 0,0 285.0,1860.0" fill="none" stroke="rgb(0, 0, 0)" stroke-width="2.0"/>
   <polyline fill="none" points="285,1860 271,1860 271,1890 285,1890" stroke="rgb(0, 0, 0)" stroke-linecap="square" stroke-width="2.0"/>
   <path d="M285.0,190.0 A15.0,15.0 90.0 0,0 285.0,160.0" fill="none" stroke="rgb(0, 0, 0)" stroke-width="2.0"/>
   <polyline fill="none" points="285,160 271,160 271,190 285,190" stroke="rgb(0, 0, 0)" stroke-linecap="square" stroke-width="2.0"/>
   <path d="M285.0,240.0 A15.0,15.0 90.0 0,0 285.0,210.0" fill="none" stroke="rgb(0, 0, 0)" stroke-width="2.0"/>
   <polyline fill="none" points="285,210 271,210 271,240 285,240" stroke="rgb(0, 0, 0)" stroke-linecap="square" stroke-width="2.0"/>
   <path d="M285.0,290.0 A15.0,15.0 90.0 0,0 285.0,260.0" fill="none" stroke="rgb(0, 0, 0)" stroke-width="2.0"/>
   <polyline fill="none" points="285,260 271,260 271,290 285,290" stroke="rgb(0, 0, 0)" stroke-linecap="square" stroke-width="2.0"/>
   <path d="M285.0,340.0 A15.0,15.0 90.0 0,0 285.0,310.0" fill="none" stroke="rgb(0, 0, 0)" stroke-width="2.0"/>
   <polyline fill="none" points="285,310 271,310 271,340 285,340" stroke="rgb(0, 0, 0)" stroke-linecap="square" stroke-width="2.0"/>
   <path d="M285.0,390.0 A15.0,15.0 90.0 0,0 285.0,360.0" fill="none" stroke="rgb(0, 0, 0)" stroke-width="2.0"/>
   <polyline fill="none" points="285,360 271,360 271,390 285,390" stroke="rgb(0, 0, 0)" stroke-linecap="square" stroke-width="2.0"/>
   <path d="M285.0,440.0 A15.0,15.0 90.0 0,0 285.0,410.0" fill="none" stroke="rgb(0, 0, 0)" stroke-width="2.0"/>
   <polyline fill="none" points="285,410 271,410 271,440 285,440" stroke="rgb(0, 0, 0)" stroke-linecap="square" stroke-width="2.0"/>
   <path d="M285.0,490.0 A15.0,15.0 90.0 0,0 285.0,460.0" fill="none" stroke="rgb(0, 0, 0)" stroke-width="2.0"/>
   <polyline fill="none" points="285,460 271,460 271,490 285,490" stroke="rgb(0, 0, 0)" stroke-linecap="square" stroke-width="2.0"/>
   <path d="M285.0,540.0 A15.0,15.0 90.0 0,0 285.0,510.0" fill="none" stroke="rgb(0, 0, 0)" stroke-width="2.0"/>
   <polyline fill="none" points="285,510 271,510 271,540 285,540" stroke="rgb(0, 0, 0)" stroke-linecap="square" stroke-width="2.0"/>
   <path d="M285.0,590.0 A15.0,15.0 90.0 0,0 285.0,560.0" fill="none" stroke="rgb(0, 0, 0)" stroke-width="2.0"/>
   <polyline fill="none" points="285,560 271,560 271,590 285,590" stroke="rgb(0, 0, 0)" stroke-linecap="square" stroke-width="2.0"/>
   <path d="M285.0,640.0 A15.0,15.0 90.0 0,0 285.0,610.0" fill="none" stroke="rgb(0, 0, 0)" stroke-width="2.0"/>
   <polyline fill="none" points="285,610 271,610 271,640 285,640" stroke="rgb(0, 0, 0)" stroke-linecap="square" stroke-width="2.0"/>
   <path d="M285.0,690.0 A15.0,15.0 90.0 0,0 285.0,660.0" fill="none" stroke="rgb(0, 0, 0)" stroke-width="2.0"/>
   <polyline fill="none" points="285,660 271,660 271,690 285,690" stroke="rgb(0, 0, 0)" stroke-linecap="square" stroke-width="2.0"/>
   <path d="M285.0,740.0 A15.0,15.0 90.0 0,0 285.0,710.0" fill="none" stroke="rgb(0, 0, 0)" stroke-width="2.0"/>
   <polyline fill="none" points="285,710 271,710 271,740 285,740" stroke="rgb(0, 0, 0)" stroke-linecap="square" stroke-width="2.0"/>
   <path d="M285.0,790.0 A15.0,15.0 90.0 0,0 285.0,760.0" fill="none" stroke="rgb(0, 0, 0)" stroke-width="2.0"/>
   <polyline fill="none" points="285,760 271,760 271,790 285,790" stroke="rgb(0, 0, 0)" stroke-linecap="square" stroke-width="2.0"/>
   <path d="M285.0,840.0 A15.0,15.0 90.0 0,0 285.0,810.0" fill="none" stroke="rgb(0, 0, 0)" stroke-width="2.0"/>
   <polyline fill="none" points="285,810 271,810 271,840 285,840" stroke="rgb(0, 0, 0)" stroke-linecap="square" stroke-width="2.0"/>
   <path d="M285.0,890.0 A15.0,15.0 90.0 0,0 285.0,860.0" fill="none" stroke="rgb(0, 0, 0)" stroke-width="2.0"/>
   <polyline fill="none" points="285,860 271,860 271,890 285,890" stroke="rgb(0, 0, 0)" stroke-linecap="square" stroke-width="2.0"/>
   <path d="M285.0,940.0 A15.0,15.0 90.0 0,0 285.0,910.0" fill="none" stroke="rgb(0, 0, 0)" stroke-width="2.0"/>
   <polyline fill="none" points="285,910 271,910 271,940 285,940" stroke="rgb(0, 0, 0)" stroke-linecap="square" stroke-width="2.0"/>
   <polyline fill="none" points="300,1025 320,1025 320,1065 350,1065 350,1065" stroke="rgb(0, 0, 0)" stroke-linecap="square" stroke-width="3.0"/>
   <polyline fill="none" points="300,1075 350,1075 350,1075" stroke="rgb(0, 0, 0)" stroke-linecap="square" stroke-width="3.0"/>
   <polyline fill="none" points="300,1125 320,1125 320,1085 350,1085 350,1085" stroke="rgb(0, 0, 0)" stroke-linecap="square" stroke-width="3.0"/>
   <path d=" M380.0,1075.0 C370.0,1060.0 370.0,1060.0 350.0,1060.0 C358.0,1075.0 358.0,1075.0 350.0,1090.0 C370.0,1090.0 370.0,1090.0 380.0,1075.0 Z" fill="none" stroke="rgb(0, 0, 0)" stroke-linecap="square" stroke-width="2.0"/>
   <path d=" M350.0,1050.0 C352.0,1055.0 352.0,1055.0 350.0,1060.0 C358.0,1075.0 358.0,1075.0 350.0,1090.0 C352.0,1095.0 352.0,1095.0 350.0,1100.0" fill="none" stroke="rgb(0, 0, 0)" stroke-linecap="square" stroke-width="2.0"/>
   <polyline fill="none" points="300,1275 320,1275 320,1285 350,1285 350,1285" stroke="rgb(0, 0, 0)" stroke-linecap="square" stroke-width="3.0"/>
   <polyline fill="none" points="350,1305 350,1305 320,1305 320,1325 300,1325" stroke="rgb(0, 0, 0)" stroke-linecap="square" stroke-width="3.0"/>
   <path d=" M380.0,1295.0 C370.0,1280.0 370.0,1280.0 350.0,1280.0 C358.0,1295.0 358.0,1295.0 350.0,1310.0 C370.0,1310.0 370.0,1310.0 380.0,1295.0 Z" fill="none" stroke="rgb(0, 0, 0)" stroke-linecap="square" stroke-width="2.0"/>
   <path d=" M350.0,1270.0 C352.0,1275.0 352.0,1275.0 350.0,1280.0 C358.0,1295.0 358.0,1295.0 350.0,1310.0 C352.0,1315.0 352.0,1315.0 350.0,1320.0" fill="none" stroke="rgb(0, 0, 0)" stroke-linecap="square" stroke-width="2.0"/>
   <polyline fill="none" points="300,1475 320,1475 320,1515 350,1515 350,1515" stroke="rgb(0, 0, 0)" stroke-linecap="square" stroke-width="3.0"/>
   <polyline fill="none" points="300,1525 350,1525 350,1525" stroke="rgb(0, 0, 0)" stroke-linecap="square" stroke-width="3.0"/>
   <polyline fill="none" points="350,1535 350,1535 320,1535 320,1575 300,1575" stroke="rgb(0, 0, 0)" stroke-linecap="square" stroke-width="3.0"/>
   <path d=" M380.0,1525.0 C370.0,1510.0 370.0,1510.0 350.0,1510.0 C358.0,1525.0 358.0,1525.0 350.0,1540.0 C370.0,1540.0 370.0,1540.0 380.0,1525.0 Z" fill="none" stroke="rgb(0, 0, 0)" stroke-linecap="square" stroke-width="2.0"/>
   <path d=" M350.0,1500.0 C352.0,1505.0 352.0,1505.0 350.0,1510.0 C358.0,1525.0 358.0,1525.0 350.0,1540.0 C352.0,1545.0 352.0,1545.0 350.0,1550.0" fill="none" stroke="rgb(0, 0, 0)" stroke-linecap="square" stroke-width="2.0"/>
   <polyline fill="none" points="300,1725 320,1725 320,1765 350,1765 350,1765" stroke="rgb(0, 0, 0)" stroke-linecap="square" stroke-width="3.0"/>
   <polyline fill="none" points="300,1775 350,1775 350,1775" stroke="rgb(0, 0, 0)" stroke-linecap="square" stroke-width="3.0"/>
   <polyline fill="none" points="350,1785 350,1785 320,1785 320,1825 300,1825" stroke="rgb(0, 0, 0)" stroke-linecap="square" stroke-width="3.0"/>
   <path d=" M380.0,1775.0 C370.0,1760.0 370.0,1760.0 350.0,1760.0 C358.0,1775.0 358.0,1775.0 350.0,1790.0 C370.0,1790.0 370.0,1790.0 380.0,1775.0 Z" fill="none" stroke="rgb(0, 0, 0)" stroke-linecap="square" stroke-width="2.0"/>
   <path d=" M350.0,1750.0 C352.0,1755.0 352.0,1755.0 350.0,1760.0 C358.0,1775.0 358.0,1775.0 350.0,1790.0 C352.0,1795.0 352.0,1795.0 350.0,1800.0" fill="none" stroke="rgb(0, 0, 0)" stroke-linecap="square" stroke-width="2.0"/>
   <polyline fill="none" points="300,525 320,525 320,565 350,565 350,565" stroke="rgb(0, 0, 0)" stroke-linecap="square" stroke-width="3.0"/>
   <polyline fill="none" points="300,575 350,575 350,575" stroke="rgb(0, 0, 0)" stroke-linecap="square" stroke-width="3.0"/>
   <polyline fill="none" points="350,585 350,585 320,585 320,625 300,625" stroke="rgb(0, 0, 0)" stroke-linecap="square" stroke-width="3.0"/>
   <path d=" M380.0,575.0 C370.0,560.0 370.0,560.0 350.0,560.0 C358.0,575.0 358.0,575.0 350.0,590.0 C370.0,590.0 370.0,590.0 380.0,575.0 Z" fill="none" stroke="rgb(0, 0, 0)" stroke-linecap="square" stroke-width="2.0"/>
   <path d=" M350.0,550.0 C352.0,555.0 352.0,555.0 350.0,560.0 C358.0,575.0 358.0,575.0 350.0,590.0 C352.0,595.0 352.0,595.0 350.0,600.0" fill="none" stroke="rgb(0, 0, 0)" stroke-linecap="square" stroke-width="2.0"/>
   <polyline fill="none" points="300,775 320,775 320,815 350,815 350,815" stroke="rgb(0, 0, 0)" stroke-linecap="square" stroke-width="3.0"/>
   <polyline fill="none" points="300,825 350,825 350,825" stroke="rgb(0, 0, 0)" stroke-linecap="square" stroke-width="3.0"/>
   <polyline fill="none" points="350,835 350,835 320,835 320,875 300,875" stroke="rgb(0, 0, 0)" stroke-linecap="square" stroke-width="3.0"/>
   <path d=" M380.0,825.0 C370.0,810.0 370.0,810.0 350.0,810.0 C358.0,825.0 358.0,825.0 350.0,840.0 C370.0,840.0 370.0,840.0 380.0,825.0 Z" fill="none" stroke="rgb(0, 0, 0)" stroke-linecap="square" stroke-width="2.0"/>
   <path d=" M350.0,800.0 C352.0,805.0 352.0,805.0 350.0,810.0 C358.0,825.0 358.0,825.0 350.0,840.0 C352.0,845.0 352.0,845.0 350.0,850.0" fill="none" stroke="rgb(0, 0, 0)" stroke-linecap="square" stroke-width="2.0"/>
   <polyline fill="none" points="300,175 340,175 340,265 360,265 360,265" stroke="rgb(0, 0, 0)" stroke-linecap="square" stroke-width="3.0"/>
   <polyline fill="none" points="300,225 330,225 330,275 360,275 360,275" stroke="rgb(0, 0, 0)" stroke-linecap="square" stroke-width="3.0"/>
   <polyline fill="none" points="300,275 320,275 320,285 360,285 360,285" stroke="rgb(0, 0, 0)" stroke-linecap="square" stroke-width="3.0"/>
   <polyline fill="none" points="300,325 320,325 320,305 360,305 360,305" stroke="rgb(0, 0, 0)" stroke-linecap="square" stroke-width="3.0"/>
   <polyline fill="none" points="300,375 330,375 330,315 360,315 360,315" stroke="rgb(0, 0, 0)" stroke-linecap="square" stroke-width="3.0"/>
   <polyline fill="none" points="300,425 340,425 340,325 360,325 360,325" stroke="rgb(0, 0, 0)" stroke-linecap="square" stroke-width="3.0"/>
   <path d=" M390.0,295.0 C380.0,280.0 380.0,280.0 360.0,280.0 C368.0,295.0 368.0,295.0 360.0,310.0 C380.0,310.0 380.0,310.0 390.0,295.0 Z" fill="none" stroke="rgb(0, 0, 0)" stroke-linecap="square" stroke-width="2.0"/>
   <path d=" M360.0,260.0 C365.0,270.0 365.0,270.0 360.0,280.0 C368.0,295.0 368.0,295.0 360.0,310.0 C365.0,320.0 365.0,320.0 360.0,330.0" fill="none" stroke="rgb(0, 0, 0)" stroke-linecap="square" stroke-width="2.0"/>
   <text fill="rgb(0, 0, 0)" font-family="SansSerif" font-size="16" font-weight="bold" x="475.0" y="185.0">UP 1</text>
   <text fill="rgb(0, 0, 0)" font-family="SansSerif" font-size="16" font-weight="bold" x="475.0" y="220.0">UP 2</text>
   <text fill="rgb(0, 0, 0)" font-family="SansSerif" font-size="16" font-weight="bold" x="475.0" y="250.0">UP 3</text>
   <text fill="rgb(0, 0, 0)" font-family="SansSerif" font-size="16" font-weight="bold" x="475.0" y="280.0">UP 4</text>
   <text fill="rgb(0, 0, 0)" font-family="SansSerif" font-size="16" font-weight="bold" x="473.0" y="365.0">DOWN 1</text>
   <text fill="rgb(0, 0, 0)" font-family="SansSerif" font-size="16" font-weight="bold" x="473.0" y="400.0">DOWN 2</text>
   <text fill="rgb(0, 0, 0)" font-family="SansSerif" font-size="16" font-weight="bold" x="473.0" y="425.0">DOWN 3</text>
   <text fill="rgb(0, 0, 0)" font-family="SansSerif" font-size="16" font-weight="bold" x="473.0" y="455.0">DOWN 4</text>
</svg>
