<?xml version="1.0" encoding="UTF-8" standalone="no"?>
<svg xmlns="http://www.w3.org/2000/svg" version="1.1" viewBox="0 0 960 435">
   <polyline fill="none" points="192,55 252,55" stroke="rgb(0, 0, 0)" stroke-linecap="square" stroke-width="4.0"/>
   <polyline fill="none" points="772,285 832,285" stroke="rgb(0, 0, 0)" stroke-linecap="square" stroke-width="3.0"/>
   <polyline fill="none" points="582,245 602,245 602,275 702,275" stroke="rgb(0, 0, 0)" stroke-linecap="square" stroke-width="3.0"/>
   <polyline fill="none" points="582,325 602,325 602,295 702,295" stroke="rgb(0, 0, 0)" stroke-linecap="square" stroke-width="3.0"/>
   <polyline fill="none" points="192,15 442,15 442,55" stroke="rgb(0, 0, 0)" stroke-linecap="square" stroke-width="4.0"/>
   <polyline fill="none" points="582,165 632,165 632,255 702,255" stroke="rgb(0, 0, 0)" stroke-linecap="square" stroke-width="3.0"/>
   <polyline fill="none" points="582,405 632,405 632,315 702,315" stroke="rgb(0, 0, 0)" stroke-linecap="square" stroke-width="3.0"/>
   <rect fill="none" height="18" stroke="rgb(0, 0, 0)" stroke-linecap="square" stroke-width="2.0" width="38" x="154" y="7"/>
   <text fill="rgb(0, 0, 0)" font-family="SansSerif" font-size="12" x="165.0" y="21.0">x4</text>
   <text fill="rgb(0, 0, 0)" font-family="SansSerif" font-size="12" font-style="italic" font-weight="bold" x="38.0" y="21.0">ESCOLHA_CPU_B</text>
   <circle cx="192.0" cy="15.0" fill="rgb(0, 0, 0)" r="2.0" stroke="none" stroke-width="2.0"/>
   <rect fill="none" height="18" stroke="rgb(0, 0, 0)" stroke-linecap="square" stroke-width="2.0" width="38" x="154" y="47"/>
   <text fill="rgb(0, 0, 0)" font-family="SansSerif" font-size="12" x="165.0" y="61.0">x4</text>
   <text fill="rgb(0, 0, 0)" font-family="SansSerif" font-size="12" font-style="italic" font-weight="bold" x="5.0" y="61.0">ESCOLHA_USUARIO_A</text>
   <circle cx="192.0" cy="55.0" fill="rgb(0, 0, 0)" r="2.0" stroke="none" stroke-width="2.0"/>
   <polyline fill="none" points="291,61 258,61 253,56" stroke="rgb(0, 0, 0)" stroke-linecap="square" stroke-width="5.0"/>
   <text fill="rgb(0, 0, 0)" font-family="SansSerif" font-size="7" transform="rotate(90.0,295.0,64.0)" x="295.0" y="64.0">0</text>
   <text fill="rgb(0, 0, 0)" font-family="SansSerif" font-size="7" transform="rotate(90.0,285.0,64.0)" x="285.0" y="64.0">1</text>
   <text fill="rgb(0, 0, 0)" font-family="SansSerif" font-size="7" transform="rotate(90.0,275.0,64.0)" x="275.0" y="64.0">2</text>
   <text fill="rgb(0, 0, 0)" font-family="SansSerif" font-size="7" transform="rotate(90.0,265.0,64.0)" x="265.0" y="64.0">3</text>
   <circle cx="252.0" cy="55.0" fill="rgb(0, 0, 0)" r="2.0" stroke="none" stroke-width="5.0"/>
   <circle cx="292.0" cy="75.0" fill="rgb(0, 0, 0)" r="2.0" stroke="none" stroke-width="5.0"/>
   <circle cx="282.0" cy="75.0" fill="rgb(0, 0, 0)" r="2.0" stroke="none" stroke-width="5.0"/>
   <circle cx="272.0" cy="75.0" fill="rgb(0, 0, 0)" r="2.0" stroke="none" stroke-width="5.0"/>
   <circle cx="262.0" cy="75.0" fill="rgb(0, 0, 0)" r="2.0" stroke="none" stroke-width="5.0"/>
   <polyline fill="none" points="403,61 436,61 441,56" stroke="rgb(0, 0, 0)" stroke-linecap="square" stroke-width="5.0"/>
   <text fill="rgb(0, 0, 0)" font-family="SansSerif" font-size="7" transform="rotate(90.0,435.0,64.0)" x="435.0" y="64.0">0</text>
   <text fill="rgb(0, 0, 0)" font-family="SansSerif" font-size="7" transform="rotate(90.0,425.0,64.0)" x="425.0" y="64.0">1</text>
   <text fill="rgb(0, 0, 0)" font-family="SansSerif" font-size="7" transform="rotate(90.0,415.0,64.0)" x="415.0" y="64.0">2</text>
   <text fill="rgb(0, 0, 0)" font-family="SansSerif" font-size="7" transform="rotate(90.0,405.0,64.0)" x="405.0" y="64.0">3</text>
   <circle cx="442.0" cy="55.0" fill="rgb(0, 0, 0)" r="2.0" stroke="none" stroke-width="5.0"/>
   <circle cx="432.0" cy="75.0" fill="rgb(0, 0, 0)" r="2.0" stroke="none" stroke-width="5.0"/>
   <circle cx="422.0" cy="75.0" fill="rgb(0, 0, 0)" r="2.0" stroke="none" stroke-width="5.0"/>
   <circle cx="412.0" cy="75.0" fill="rgb(0, 0, 0)" r="2.0" stroke="none" stroke-width="5.0"/>
   <circle cx="402.0" cy="75.0" fill="rgb(0, 0, 0)" r="2.0" stroke="none" stroke-width="5.0"/>
   <polyline fill="none" points="836,285 833,285" stroke="rgb(0, 0, 0)" stroke-linecap="square" stroke-width="3.0"/>
   <polygon fill="none" points="838,276 862,276 872,285 862,294 838,294" stroke="rgb(0, 0, 0)" stroke-linecap="square" stroke-width="2.0"/>
   <text fill="rgb(0, 0, 0)" font-family="Monospaced" font-size="12" x="838.0" y="291.0">x1</text>
   <text fill="rgb(0, 0, 0)" font-family="Monospaced" font-size="12" font-weight="bold" x="874.0" y="291.0">IGUALDADE</text>
   <circle cx="832.0" cy="285.0" fill="rgb(0, 0, 0)" r="2.0" stroke="none" stroke-width="2.0"/>
   <polyline fill="none" points="512,145 512,145 432,145 432,75 432,61" stroke="rgb(0, 0, 0)" stroke-linecap="square" stroke-width="3.0"/>
   <polyline fill="none" points="512,185 512,185 292,185 292,75 292,61" stroke="rgb(0, 0, 0)" stroke-linecap="square" stroke-width="3.0"/>
   <path d=" M572.0,165.0 C552.0,140.0 552.0,140.0 522.0,140.0 C535.0,165.0 535.0,165.0 522.0,190.0 C552.0,190.0 552.0,190.0 572.0,165.0 Z" fill="none" stroke="rgb(0, 0, 0)" stroke-linecap="square" stroke-width="2.0"/>
   <path d=" M512.0,140.0 C525.0,165.0 525.0,165.0 512.0,190.0" fill="none" stroke="rgb(0, 0, 0)" stroke-linecap="square" stroke-width="2.0"/>
   <circle cx="577.0" cy="165.0" fill="none" r="4.5" stroke="rgb(0, 0, 0)" stroke-width="2.0"/>
   <polyline fill="none" points="512,225 512,225 422,225 422,75 422,61" stroke="rgb(0, 0, 0)" stroke-linecap="square" stroke-width="3.0"/>
   <polyline fill="none" points="512,265 512,265 282,265 282,75 282,61" stroke="rgb(0, 0, 0)" stroke-linecap="square" stroke-width="3.0"/>
   <path d=" M572.0,245.0 C552.0,220.0 552.0,220.0 522.0,220.0 C535.0,245.0 535.0,245.0 522.0,270.0 C552.0,270.0 552.0,270.0 572.0,245.0 Z" fill="none" stroke="rgb(0, 0, 0)" stroke-linecap="square" stroke-width="2.0"/>
   <path d=" M512.0,220.0 C525.0,245.0 525.0,245.0 512.0,270.0" fill="none" stroke="rgb(0, 0, 0)" stroke-linecap="square" stroke-width="2.0"/>
   <circle cx="577.0" cy="245.0" fill="none" r="4.5" stroke="rgb(0, 0, 0)" stroke-width="2.0"/>
   <polyline fill="none" points="512,305 512,305 412,305 412,75 412,61" stroke="rgb(0, 0, 0)" stroke-linecap="square" stroke-width="3.0"/>
   <polyline fill="none" points="512,345 512,345 272,345 272,75 272,61" stroke="rgb(0, 0, 0)" stroke-linecap="square" stroke-width="3.0"/>
   <path d=" M572.0,325.0 C552.0,300.0 552.0,300.0 522.0,300.0 C535.0,325.0 535.0,325.0 522.0,350.0 C552.0,350.0 552.0,350.0 572.0,325.0 Z" fill="none" stroke="rgb(0, 0, 0)" stroke-linecap="square" stroke-width="2.0"/>
   <path d=" M512.0,300.0 C525.0,325.0 525.0,325.0 512.0,350.0" fill="none" stroke="rgb(0, 0, 0)" stroke-linecap="square" stroke-width="2.0"/>
   <circle cx="577.0" cy="325.0" fill="none" r="4.5" stroke="rgb(0, 0, 0)" stroke-width="2.0"/>
   <polyline fill="none" points="512,385 512,385 402,385 402,75 402,61" stroke="rgb(0, 0, 0)" stroke-linecap="square" stroke-width="3.0"/>
   <polyline fill="none" points="512,425 512,425 262,425 262,75 262,61" stroke="rgb(0, 0, 0)" stroke-linecap="square" stroke-width="3.0"/>
   <path d=" M572.0,405.0 C552.0,380.0 552.0,380.0 522.0,380.0 C535.0,405.0 535.0,405.0 522.0,430.0 C552.0,430.0 552.0,430.0 572.0,405.0 Z" fill="none" stroke="rgb(0, 0, 0)" stroke-linecap="square" stroke-width="2.0"/>
   <path d=" M512.0,380.0 C525.0,405.0 525.0,405.0 512.0,430.0" fill="none" stroke="rgb(0, 0, 0)" stroke-linecap="square" stroke-width="2.0"/>
   <circle cx="577.0" cy="405.0" fill="none" r="4.5" stroke="rgb(0, 0, 0)" stroke-width="2.0"/>
   <path d="M737.0,320.0 A35.0,35.0 90.0 0,0 737.0,250.0" fill="none" stroke="rgb(0, 0, 0)" stroke-width="2.0"/>
   <polyline fill="none" points="737,250 703,250 703,320 737,320" stroke="rgb(0, 0, 0)" stroke-linecap="square" stroke-width="2.0"/>
   <text fill="rgb(0, 0, 0)" font-family="SansSerif" font-size="10" font-weight="bold" x="495.0" y="125.0">COMPARA BIT 0</text>
   <text fill="rgb(0, 0, 0)" font-family="SansSerif" font-size="10" font-weight="bold" x="499.0" y="210.0">COMPARA BIT 1</text>
   <text fill="rgb(0, 0, 0)" font-family="SansSerif" font-size="10" font-weight="bold" x="499.0" y="290.0">COMPARA BIT 2</text>
   <text fill="rgb(0, 0, 0)" font-family="SansSerif" font-size="10" font-weight="bold" x="499.0" y="365.0">COMPARA BIT 3</text>
   <text fill="rgb(0, 0, 0)" font-family="SansSerif" font-size="8" font-weight="bold" x="684.0" y="220.0">COMPARA TODO</text>
   <text fill="rgb(0, 0, 0)" font-family="SansSerif" font-size="8" font-weight="bold" x="701.0" y="235.0">O NÚMERO</text>
</svg>
