<?xml version="1.0" encoding="UTF-8" standalone="no"?>
<svg style="background-color: #FFFFFF;" xmlns="http://www.w3.org/2000/svg" version="1.1" viewBox="0 0 1192 618">
<rect width="100%" height="100%" fill="#FFFFFF"/>
   <polyline fill="none" points="745,15 845,15" stroke="rgb(0, 0, 0)" stroke-linecap="square" stroke-width="3.0"/>
   <polyline fill="none" points="915,155 915,175 865,175 865,435 805,435" stroke="rgb(0, 0, 0)" stroke-linecap="square" stroke-width="4.0"/>
   <polyline fill="none" points="45,295 45,285 465,285" stroke="rgb(0, 0, 0)" stroke-linecap="square" stroke-width="3.0"/>
   <polyline fill="none" points="1145,155 1145,285 465,285 465,215 485,215" stroke="rgb(0, 0, 0)" stroke-linecap="square" stroke-width="3.0"/>
   <polyline fill="none" points="505,405 465,405 465,565 495,565" stroke="rgb(0, 0, 0)" stroke-linecap="square" stroke-width="4.0"/>
   <polyline fill="none" points="755,155 755,215" stroke="rgb(0, 0, 0)" stroke-linecap="square" stroke-width="4.0"/>
   <polyline fill="none" points="715,545 1165,545 1165,155" stroke="rgb(0, 0, 0)" stroke-linecap="square" stroke-width="3.0"/>
   <polyline fill="none" points="935,155 935,215 755,215 705,215" stroke="rgb(0, 0, 0)" stroke-linecap="square" stroke-width="4.0"/>
   <polyline fill="none" points="375,535 375,545 445,545 495,545" stroke="rgb(0, 0, 0)" stroke-linecap="square" stroke-width="4.0"/>
   <polyline fill="none" points="265,405 465,405" stroke="rgb(0, 0, 0)" stroke-linecap="square" stroke-width="4.0"/>
   <polyline fill="none" points="775,155 775,175 825,175 825,415 805,415" stroke="rgb(0, 0, 0)" stroke-linecap="square" stroke-width="4.0"/>
   <polyline fill="none" points="925,75 925,125" stroke="rgb(0, 0, 0)" stroke-linecap="square" stroke-width="4.0"/>
   <polyline fill="none" points="765,75 765,125" stroke="rgb(0, 0, 0)" stroke-linecap="square" stroke-width="4.0"/>
   <polyline fill="none" points="505,425 445,425 445,545" stroke="rgb(0, 0, 0)" stroke-linecap="square" stroke-width="4.0"/>
   <polyline fill="none" points="575,415 585,415" stroke="rgb(0, 0, 0)" stroke-linecap="square" stroke-width="4.0"/>
   <circle cx="445.0" cy="545.0" fill="rgb(0, 0, 0)" r="6.0" stroke="none" stroke-width="4.0"/>
   <circle cx="755.0" cy="215.0" fill="rgb(0, 0, 0)" r="6.0" stroke="none" stroke-width="4.0"/>
   <circle cx="465.0" cy="405.0" fill="rgb(0, 0, 0)" r="6.0" stroke="none" stroke-width="4.0"/>
   <circle cx="465.0" cy="285.0" fill="rgb(0, 0, 0)" r="5.0" stroke="none" stroke-width="4.0"/>
   <polyline fill="none" points="45,301 45,296" stroke="rgb(0, 0, 0)" stroke-linecap="square" stroke-width="3.0"/>
   <polygon fill="none" points="36,335 36,311 45,301 54,311 54,335" stroke="rgb(0, 0, 0)" stroke-linecap="square" stroke-width="2.0"/>
   <text fill="rgb(0, 0, 0)" font-family="Monospaced" font-size="12" transform="rotate(-90.0,51.0,330.0)" x="51.0" y="330.0">x1</text>
   <text fill="rgb(0, 0, 0)" font-family="Monospaced" font-size="12" font-weight="bold" x="5.0" y="349.0">CONFIRMAR</text>
   <circle cx="45.0" cy="295.0" fill="rgb(0, 0, 0)" r="2.0" stroke="none" stroke-width="2.0"/>
   <polyline fill="none" points="1155,102 1155,105 1155,125" stroke="rgb(0, 0, 0)" stroke-linecap="square" stroke-width="3.0"/>
   <polygon fill="none" points="1146,100 1146,76 1155,66 1164,76 1164,100" stroke="rgb(0, 0, 0)" stroke-linecap="square" stroke-width="2.0"/>
   <text fill="rgb(0, 0, 0)" font-family="Monospaced" font-size="12" transform="rotate(90.0,1149.0,71.0)" x="1149.0" y="71.0">x1</text>
   <text fill="rgb(0, 0, 0)" font-family="Monospaced" font-size="12" font-style="italic" font-weight="bold" x="1124.0" y="60.0">ACERTOU</text>
   <circle cx="1155.0" cy="105.0" fill="rgb(0, 0, 0)" r="2.0" stroke="none" stroke-width="2.0"/>
   <polyline fill="none" points="150,375 155,375 185,375" stroke="rgb(0, 0, 0)" stroke-linecap="square" stroke-width="3.0"/>
   <polygon fill="none" points="116,366 140,366 150,375 140,384 116,384" stroke="rgb(0, 0, 0)" stroke-linecap="square" stroke-width="2.0"/>
   <text fill="rgb(0, 0, 0)" font-family="Monospaced" font-size="12" x="121.0" y="381.0">x1</text>
   <text fill="rgb(0, 0, 0)" font-family="Monospaced" font-size="16" font-weight="bold" x="70.0" y="382.0">novo</text>
   <circle cx="155.0" cy="375.0" fill="rgb(0, 0, 0)" r="2.0" stroke="none" stroke-width="2.0"/>
   <rect fill="none" height="18" stroke="rgb(0, 0, 0)" stroke-linecap="square" stroke-width="2.0" width="38" x="357" y="517"/>
   <text fill="rgb(0, 0, 0)" font-family="SansSerif" font-size="12" x="368.0" y="531.0">x4</text>
   <text fill="rgb(0, 0, 0)" font-family="SansSerif" font-size="10" font-weight="bold" x="357.0" y="510.0">CHUTE</text>
   <circle cx="375.0" cy="535.0" fill="rgb(0, 0, 0)" r="2.0" stroke="none" stroke-width="2.0"/>
   <text fill="rgb(0, 0, 0)" font-family="Monospaced" font-size="12" x="735.0" y="19.0">0</text>
   <circle cx="745.0" cy="15.0" fill="rgb(0, 0, 0)" r="2.0" stroke="none" stroke-width="1.0"/>
   <rect fill="none" height="18" rx="3.0" ry="3.0" stroke="rgb(0, 0, 0)" stroke-linecap="square" stroke-width="2.0" width="78" x="727" y="57"/>
   <text fill="rgb(0, 0, 0)" font-family="SansSerif" font-size="12" x="758.0" y="71.0">x8</text>
   <text fill="rgb(0, 0, 0)" font-family="SansSerif" font-size="16" font-weight="bold" x="717.0" y="49.0">VERMELHO</text>
   <circle cx="765.0" cy="75.0" fill="rgb(0, 0, 0)" r="2.0" stroke="none" stroke-width="2.0"/>
   <polyline fill="none" points="849,15 846,15" stroke="rgb(0, 0, 0)" stroke-linecap="square" stroke-width="3.0"/>
   <polygon fill="none" points="851,6 875,6 885,15 875,24 851,24" stroke="rgb(0, 0, 0)" stroke-linecap="square" stroke-width="2.0"/>
   <text fill="rgb(0, 0, 0)" font-family="Monospaced" font-size="12" x="851.0" y="21.0">x1</text>
   <text fill="rgb(0, 0, 0)" font-family="Monospaced" font-size="16" font-weight="bold" x="887.0" y="22.0">verde</text>
   <circle cx="845.0" cy="15.0" fill="rgb(0, 0, 0)" r="2.0" stroke="none" stroke-width="2.0"/>
   <rect fill="none" height="18" rx="3.0" ry="3.0" stroke="rgb(0, 0, 0)" stroke-linecap="square" stroke-width="2.0" width="78" x="887" y="57"/>
   <text fill="rgb(0, 0, 0)" font-family="SansSerif" font-size="12" x="918.0" y="71.0">x8</text>
   <text fill="rgb(0, 0, 0)" font-family="SansSerif" font-size="16" font-weight="bold" x="902.0" y="49.0">AZUL</text>
   <circle cx="925.0" cy="75.0" fill="rgb(0, 0, 0)" r="2.0" stroke="none" stroke-width="2.0"/>
   <path d="M1170.0,140.0 A15.0,15.0 0.0 0,0 1140.0,140.0" fill="none" stroke="rgb(0, 0, 0)" stroke-width="2.0"/>
   <polyline fill="none" points="1140,140 1140,154 1170,154 1170,140" stroke="rgb(0, 0, 0)" stroke-linecap="square" stroke-width="2.0"/>
   <path d="M780.0,140.0 A15.0,15.0 0.0 0,0 750.0,140.0" fill="none" stroke="rgb(0, 0, 0)" stroke-width="2.0"/>
   <polyline fill="none" points="750,140 750,154 780,154 780,140" stroke="rgb(0, 0, 0)" stroke-linecap="square" stroke-width="2.0"/>
   <path d="M940.0,140.0 A15.0,15.0 0.0 0,0 910.0,140.0" fill="none" stroke="rgb(0, 0, 0)" stroke-width="2.0"/>
   <polyline fill="none" points="910,140 910,154 940,154 940,140" stroke="rgb(0, 0, 0)" stroke-linecap="square" stroke-width="2.0"/>
   <polyline fill="none" points="205,395 205,385 195,385 195,325 255,325 255,385 245,385 245,395" stroke="rgb(0, 0, 0)" stroke-linecap="square" stroke-width="2.0"/>
   <text fill="rgb(0, 0, 0)" font-family="SansSerif" font-size="12" x="208.0" y="339.0">RNG4</text>
   <polyline fill="none" points="185,355 195,355" stroke="rgb(0, 0, 0)" stroke-linecap="square" stroke-width="2.0"/>
   <text fill="rgb(0, 0, 0)" font-family="SansSerif" font-size="12" x="205.0" y="361.0">R</text>
   <circle cx="185.0" cy="355.0" fill="rgb(0, 0, 0)" r="2.0" stroke="none" stroke-width="2.0"/>
   <polyline fill="none" points="185,365 195,365" stroke="rgb(0, 0, 0)" stroke-linecap="square" stroke-width="2.0"/>
   <text fill="rgb(0, 0, 0)" font-family="SansSerif" font-size="12" x="205.0" y="371.0">EN</text>
   <circle cx="185.0" cy="365.0" fill="rgb(0, 0, 0)" r="2.0" stroke="none" stroke-width="2.0"/>
   <polyline fill="none" points="196,371 203,375 196,379" stroke="rgb(0, 0, 0)" stroke-linecap="square" stroke-width="2.0"/>
   <polyline fill="none" points="185,375 195,375" stroke="rgb(0, 0, 0)" stroke-linecap="square" stroke-width="2.0"/>
   <circle cx="185.0" cy="375.0" fill="rgb(0, 0, 0)" r="2.0" stroke="none" stroke-width="2.0"/>
   <rect fill="none" height="20" stroke="rgb(0, 0, 0)" stroke-linecap="square" stroke-width="2.0" width="80" x="185" y="395"/>
   <circle cx="265.0" cy="405.0" fill="rgb(0, 0, 0)" r="2.0" stroke="none" stroke-width="2.0"/>
   <text fill="rgb(0, 0, 0)" font-family="SansSerif" font-size="12" font-style="italic" font-weight="bold" x="541.0" y="190.0">1 para 8 BITS</text>
   <rect fill="none" height="41" stroke="rgb(0, 0, 0)" stroke-linecap="square" stroke-width="3.0" width="70" x="505" y="394"/>
   <text fill="rgb(0, 0, 0)" font-family="Standard Symbols PS" font-size="30" font-style="italic" font-weight="bold" x="530.0" y="423.0">D</text>
   <text fill="rgb(0, 0, 0)" font-family="SansSerif" font-size="12" font-weight="bold" x="503.0" y="391.0">DIFERENCA</text>
   <circle cx="505.0" cy="405.0" fill="rgb(0, 0, 0)" r="2.0" stroke="none" stroke-width="1.0"/>
   <circle cx="505.0" cy="425.0" fill="rgb(0, 0, 0)" r="2.0" stroke="none" stroke-width="1.0"/>
   <circle cx="575.0" cy="415.0" fill="rgb(0, 0, 0)" r="2.0" stroke="none" stroke-width="1.0"/>
   <rect fill="rgb(0, 0, 0)" height="3" stroke="none" stroke-linecap="square" stroke-width="1.0" width="10" x="485" y="214"/>
   <text fill="rgb(64, 64, 64)" font-family="Courier 10 Pitch" font-size="12" x="500.0" y="219.0">ENTRADA</text>
   <rect fill="rgb(0, 0, 0)" height="4" stroke="none" stroke-linecap="square" stroke-width="1.0" width="10" x="695" y="213"/>
   <text fill="rgb(64, 64, 64)" font-family="Courier 10 Pitch" font-size="12" x="655.0" y="219.0">SAIDA</text>
   <rect fill="rgb(0, 0, 0)" height="20" stroke="none" stroke-linecap="square" stroke-width="1.0" width="200" x="495" y="225"/>
   <rect fill="none" height="40" stroke="rgb(0, 0, 0)" stroke-linecap="square" stroke-width="2.0" width="200" x="495" y="205"/>
   <text fill="rgb(255, 255, 255)" font-family="Courier 10 Pitch" font-size="14" font-weight="bold" x="515.0" y="239.0">subcircuito_extensor</text>
   <text fill="rgb(0, 0, 0)" font-family="SansSerif" font-size="16" font-weight="bold" x="528.0" y="263.0">sinal_extendido</text>
   <circle cx="485.0" cy="215.0" fill="rgb(0, 0, 0)" r="2.0" stroke="none" stroke-width="1.0"/>
   <circle cx="705.0" cy="215.0" fill="rgb(0, 0, 0)" r="2.0" stroke="none" stroke-width="1.0"/>
   <rect fill="rgb(0, 0, 0)" height="4" stroke="none" stroke-linecap="square" stroke-width="1.0" width="10" x="495" y="543"/>
   <text fill="rgb(64, 64, 64)" font-family="Courier 10 Pitch" font-size="12" x="510.0" y="549.0">ESCOLHA_C...</text>
   <rect fill="rgb(0, 0, 0)" height="4" stroke="none" stroke-linecap="square" stroke-width="1.0" width="10" x="495" y="563"/>
   <text fill="rgb(64, 64, 64)" font-family="Courier 10 Pitch" font-size="12" x="510.0" y="569.0">ESCOLHA_U...</text>
   <rect fill="rgb(0, 0, 0)" height="3" stroke="none" stroke-linecap="square" stroke-width="1.0" width="10" x="705" y="544"/>
   <text fill="rgb(64, 64, 64)" font-family="Courier 10 Pitch" font-size="12" x="637.0" y="549.0">IGUALDADE</text>
   <rect fill="rgb(0, 0, 0)" height="20" stroke="none" stroke-linecap="square" stroke-width="1.0" width="200" x="505" y="575"/>
   <rect fill="none" height="60" stroke="rgb(0, 0, 0)" stroke-linecap="square" stroke-width="2.0" width="200" x="505" y="535"/>
   <text fill="rgb(255, 255, 255)" font-family="Courier 10 Pitch" font-size="14" font-weight="bold" x="529.0" y="589.0">circuito_comparador</text>
   <text fill="rgb(0, 0, 0)" font-family="SansSerif" font-size="12" font-style="italic" font-weight="bold" x="557.0" y="610.0">COMPARADOR</text>
   <circle cx="495.0" cy="545.0" fill="rgb(0, 0, 0)" r="2.0" stroke="none" stroke-width="1.0"/>
   <circle cx="495.0" cy="565.0" fill="rgb(0, 0, 0)" r="2.0" stroke="none" stroke-width="1.0"/>
   <circle cx="715.0" cy="545.0" fill="rgb(0, 0, 0)" r="2.0" stroke="none" stroke-width="1.0"/>
   <rect fill="rgb(0, 0, 0)" height="4" stroke="none" stroke-linecap="square" stroke-width="1.0" width="10" x="585" y="413"/>
   <text fill="rgb(64, 64, 64)" font-family="Courier 10 Pitch" font-size="12" x="600.0" y="419.0">DIFERENCA</text>
   <rect fill="rgb(0, 0, 0)" height="4" stroke="none" stroke-linecap="square" stroke-width="1.0" width="10" x="795" y="413"/>
   <text fill="rgb(64, 64, 64)" font-family="Courier 10 Pitch" font-size="12" x="776.0" y="419.0">S1</text>
   <rect fill="rgb(0, 0, 0)" height="4" stroke="none" stroke-linecap="square" stroke-width="1.0" width="10" x="795" y="433"/>
   <text fill="rgb(64, 64, 64)" font-family="Courier 10 Pitch" font-size="12" x="776.0" y="439.0">S2</text>
   <rect fill="rgb(0, 0, 0)" height="20" stroke="none" stroke-linecap="square" stroke-width="1.0" width="200" x="595" y="445"/>
   <rect fill="none" height="60" stroke="rgb(0, 0, 0)" stroke-linecap="square" stroke-width="2.0" width="200" x="595" y="405"/>
   <text fill="rgb(255, 255, 255)" font-family="Courier 10 Pitch" font-size="14" font-weight="bold" x="639.0" y="459.0">circuito_cores</text>
   <circle cx="585.0" cy="415.0" fill="rgb(0, 0, 0)" r="2.0" stroke="none" stroke-width="1.0"/>
   <circle cx="805.0" cy="415.0" fill="rgb(0, 0, 0)" r="2.0" stroke="none" stroke-width="1.0"/>
   <circle cx="805.0" cy="435.0" fill="rgb(0, 0, 0)" r="2.0" stroke="none" stroke-width="1.0"/>
</svg>
