<?xml version="1.0" encoding="UTF-8" standalone="no"?>
<svg xmlns="http://www.w3.org/2000/svg" version="1.1" viewBox="0 0 792 517">
  <rect width="100%" height="100%" fill="white"/>
   <polyline fill="none" points="54,271 54,251 74,251" stroke="rgb(0, 0, 0)" stroke-linecap="square" stroke-width="4.0"/>
   <polyline fill="none" points="144,221 164,221" stroke="rgb(0, 0, 0)" stroke-linecap="square" stroke-width="3.0"/>
   <polyline fill="none" points="644,111 654,111" stroke="rgb(0, 0, 0)" stroke-linecap="square" stroke-width="3.0"/>
   <polyline fill="none" points="624,111 634,111" stroke="rgb(0, 0, 0)" stroke-linecap="square" stroke-width="3.0"/>
   <polyline fill="none" points="684,111 694,111" stroke="rgb(0, 0, 0)" stroke-linecap="square" stroke-width="3.0"/>
   <circle cx="644.0" cy="111.0" fill="rgb(0, 0, 0)" r="5.0" stroke="none" stroke-width="3.0"/>
   <circle cx="124.0" cy="241.0" fill="rgb(0, 0, 0)" r="5.0" stroke="none" stroke-width="3.0"/>
   <circle cx="154.0" cy="211.0" fill="rgb(0, 0, 0)" r="5.0" stroke="none" stroke-width="3.0"/>
   <circle cx="694.0" cy="111.0" fill="rgb(0, 0, 0)" r="5.0" stroke="none" stroke-width="3.0"/>
   <circle cx="624.0" cy="111.0" fill="rgb(0, 0, 0)" r="5.0" stroke="none" stroke-width="3.0"/>
   <circle cx="674.0" cy="111.0" fill="rgb(0, 0, 0)" r="5.0" stroke="none" stroke-width="3.0"/>
   <circle cx="134.0" cy="231.0" fill="rgb(0, 0, 0)" r="5.0" stroke="none" stroke-width="3.0"/>
   <circle cx="654.0" cy="111.0" fill="rgb(0, 0, 0)" r="5.0" stroke="none" stroke-width="3.0"/>
   <circle cx="634.0" cy="111.0" fill="rgb(0, 0, 0)" r="5.0" stroke="none" stroke-width="3.0"/>
   <circle cx="684.0" cy="111.0" fill="rgb(0, 0, 0)" r="5.0" stroke="none" stroke-width="3.0"/>
   <circle cx="144.0" cy="221.0" fill="rgb(0, 0, 0)" r="5.0" stroke="none" stroke-width="3.0"/>
   <polyline fill="none" points="674,111 654,111 654,441 724,441 738,441" stroke="rgb(0, 0, 0)" stroke-linecap="square" stroke-width="3.0"/>
   <polyline fill="none" points="738,451 724,451 644,451 644,111 634,111 634,461 724,461 738,461" stroke="rgb(0, 0, 0)" stroke-linecap="square" stroke-width="3.0"/>
   <polyline fill="none" points="184,111 624,111 624,471 724,471 738,471" stroke="rgb(0, 0, 0)" stroke-linecap="square" stroke-width="3.0"/>
   <polyline fill="none" points="164,211 154,211 154,481 724,481 738,481" stroke="rgb(0, 0, 0)" stroke-linecap="square" stroke-width="3.0"/>
   <polyline fill="none" points="164,231 134,231 134,501 724,501 738,501" stroke="rgb(0, 0, 0)" stroke-linecap="square" stroke-width="3.0"/>
   <polyline fill="none" points="164,241 124,241 124,511 724,511 738,511" stroke="rgb(0, 0, 0)" stroke-linecap="square" stroke-width="3.0"/>
   <polyline fill="none" points="738,510 738,437 743,432" stroke="rgb(0, 0, 0)" stroke-linecap="square" stroke-width="5.0"/>
   <text fill="rgb(0, 0, 0)" font-family="SansSerif" font-size="7" x="731.0" y="438.0">0</text>
   <text fill="rgb(0, 0, 0)" font-family="SansSerif" font-size="7" x="731.0" y="448.0">1</text>
   <text fill="rgb(0, 0, 0)" font-family="SansSerif" font-size="7" x="731.0" y="458.0">2</text>
   <text fill="rgb(0, 0, 0)" font-family="SansSerif" font-size="7" x="731.0" y="468.0">3</text>
   <text fill="rgb(0, 0, 0)" font-family="SansSerif" font-size="7" x="731.0" y="478.0">4</text>
   <text fill="rgb(0, 0, 0)" font-family="SansSerif" font-size="7" x="731.0" y="488.0">5</text>
   <text fill="rgb(0, 0, 0)" font-family="SansSerif" font-size="7" x="731.0" y="498.0">6</text>
   <text fill="rgb(0, 0, 0)" font-family="SansSerif" font-size="7" x="731.0" y="508.0">7</text>
   <circle cx="724.0" cy="441.0" fill="rgb(0, 0, 0)" r="2.0" stroke="none" stroke-width="5.0"/>
   <circle cx="724.0" cy="451.0" fill="rgb(0, 0, 0)" r="2.0" stroke="none" stroke-width="5.0"/>
   <circle cx="724.0" cy="461.0" fill="rgb(0, 0, 0)" r="2.0" stroke="none" stroke-width="5.0"/>
   <circle cx="724.0" cy="471.0" fill="rgb(0, 0, 0)" r="2.0" stroke="none" stroke-width="5.0"/>
   <circle cx="724.0" cy="481.0" fill="rgb(0, 0, 0)" r="2.0" stroke="none" stroke-width="5.0"/>
   <circle cx="724.0" cy="491.0" fill="rgb(0, 0, 0)" r="2.0" stroke="none" stroke-width="5.0"/>
   <circle cx="724.0" cy="501.0" fill="rgb(0, 0, 0)" r="2.0" stroke="none" stroke-width="5.0"/>
   <circle cx="724.0" cy="511.0" fill="rgb(0, 0, 0)" r="2.0" stroke="none" stroke-width="5.0"/>
   <polyline fill="none" points="177,210 165,205 165,217 177,212" stroke="rgb(0, 0, 0)" stroke-linecap="square" stroke-width="2.0"/>
   <circle cx="181.0" cy="211.0" fill="none" r="3.0" stroke="rgb(0, 0, 0)" stroke-width="2.0"/>
   <circle cx="184.0" cy="211.0" fill="rgb(0, 0, 0)" r="2.0" stroke="none" stroke-width="2.0"/>
   <circle cx="164.0" cy="211.0" fill="rgb(0, 0, 0)" r="2.0" stroke="none" stroke-width="2.0"/>
   <polyline fill="none" points="177,230 165,225 165,237 177,232" stroke="rgb(0, 0, 0)" stroke-linecap="square" stroke-width="2.0"/>
   <circle cx="181.0" cy="231.0" fill="none" r="3.0" stroke="rgb(0, 0, 0)" stroke-width="2.0"/>
   <circle cx="184.0" cy="231.0" fill="rgb(0, 0, 0)" r="2.0" stroke="none" stroke-width="2.0"/>
   <circle cx="164.0" cy="231.0" fill="rgb(0, 0, 0)" r="2.0" stroke="none" stroke-width="2.0"/>
   <polyline fill="none" points="177,240 165,235 165,247 177,242" stroke="rgb(0, 0, 0)" stroke-linecap="square" stroke-width="2.0"/>
   <circle cx="181.0" cy="241.0" fill="none" r="3.0" stroke="rgb(0, 0, 0)" stroke-width="2.0"/>
   <circle cx="184.0" cy="241.0" fill="rgb(0, 0, 0)" r="2.0" stroke="none" stroke-width="2.0"/>
   <circle cx="164.0" cy="241.0" fill="rgb(0, 0, 0)" r="2.0" stroke="none" stroke-width="2.0"/>
   <polyline fill="none" points="154,211 94,211 80,211" stroke="rgb(0, 0, 0)" stroke-linecap="square" stroke-width="3.0"/>
   <polyline fill="none" points="738,491 724,491 144,491 144,221 94,221 80,221" stroke="rgb(0, 0, 0)" stroke-linecap="square" stroke-width="3.0"/>
   <polyline fill="none" points="134,231 94,231 80,231" stroke="rgb(0, 0, 0)" stroke-linecap="square" stroke-width="3.0"/>
   <polyline fill="none" points="124,241 94,241 80,241" stroke="rgb(0, 0, 0)" stroke-linecap="square" stroke-width="3.0"/>
   <polyline fill="none" points="80,212 80,245 75,250" stroke="rgb(0, 0, 0)" stroke-linecap="square" stroke-width="5.0"/>
   <text fill="rgb(0, 0, 0)" font-family="SansSerif" font-size="7" x="83.0" y="218.0">0</text>
   <text fill="rgb(0, 0, 0)" font-family="SansSerif" font-size="7" x="83.0" y="228.0">1</text>
   <text fill="rgb(0, 0, 0)" font-family="SansSerif" font-size="7" x="83.0" y="238.0">2</text>
   <text fill="rgb(0, 0, 0)" font-family="SansSerif" font-size="7" x="83.0" y="248.0">3</text>
   <circle cx="74.0" cy="251.0" fill="rgb(0, 0, 0)" r="2.0" stroke="none" stroke-width="5.0"/>
   <circle cx="94.0" cy="211.0" fill="rgb(0, 0, 0)" r="2.0" stroke="none" stroke-width="5.0"/>
   <circle cx="94.0" cy="221.0" fill="rgb(0, 0, 0)" r="2.0" stroke="none" stroke-width="5.0"/>
   <circle cx="94.0" cy="231.0" fill="rgb(0, 0, 0)" r="2.0" stroke="none" stroke-width="5.0"/>
   <circle cx="94.0" cy="241.0" fill="rgb(0, 0, 0)" r="2.0" stroke="none" stroke-width="5.0"/>
   <polyline fill="none" points="177,220 165,215 165,227 177,222" stroke="rgb(0, 0, 0)" stroke-linecap="square" stroke-width="2.0"/>
   <circle cx="181.0" cy="221.0" fill="none" r="3.0" stroke="rgb(0, 0, 0)" stroke-width="2.0"/>
   <circle cx="184.0" cy="221.0" fill="rgb(0, 0, 0)" r="2.0" stroke="none" stroke-width="2.0"/>
   <circle cx="164.0" cy="221.0" fill="rgb(0, 0, 0)" r="2.0" stroke="none" stroke-width="2.0"/>
   <polyline fill="none" points="738,171 724,171 704,171 704,111 694,111 694,181 724,181 738,181" stroke="rgb(0, 0, 0)" stroke-linecap="square" stroke-width="3.0"/>
   <polyline fill="none" points="738,191 724,191 684,191 684,111 674,111 674,201 724,201 738,201" stroke="rgb(0, 0, 0)" stroke-linecap="square" stroke-width="3.0"/>
   <polyline fill="none" points="184,211 724,211 738,211" stroke="rgb(0, 0, 0)" stroke-linecap="square" stroke-width="3.0"/>
   <polyline fill="none" points="184,221 724,221 738,221" stroke="rgb(0, 0, 0)" stroke-linecap="square" stroke-width="3.0"/>
   <polyline fill="none" points="184,231 724,231 738,231" stroke="rgb(0, 0, 0)" stroke-linecap="square" stroke-width="3.0"/>
   <polyline fill="none" points="184,241 724,241 738,241" stroke="rgb(0, 0, 0)" stroke-linecap="square" stroke-width="3.0"/>
   <polyline fill="none" points="738,240 738,167 743,162" stroke="rgb(0, 0, 0)" stroke-linecap="square" stroke-width="5.0"/>
   <text fill="rgb(0, 0, 0)" font-family="SansSerif" font-size="7" x="731.0" y="168.0">0</text>
   <text fill="rgb(0, 0, 0)" font-family="SansSerif" font-size="7" x="731.0" y="178.0">1</text>
   <text fill="rgb(0, 0, 0)" font-family="SansSerif" font-size="7" x="731.0" y="188.0">2</text>
   <text fill="rgb(0, 0, 0)" font-family="SansSerif" font-size="7" x="731.0" y="198.0">3</text>
   <text fill="rgb(0, 0, 0)" font-family="SansSerif" font-size="7" x="731.0" y="208.0">4</text>
   <text fill="rgb(0, 0, 0)" font-family="SansSerif" font-size="7" x="731.0" y="218.0">5</text>
   <text fill="rgb(0, 0, 0)" font-family="SansSerif" font-size="7" x="731.0" y="228.0">6</text>
   <text fill="rgb(0, 0, 0)" font-family="SansSerif" font-size="7" x="731.0" y="238.0">7</text>
   <circle cx="724.0" cy="171.0" fill="rgb(0, 0, 0)" r="2.0" stroke="none" stroke-width="5.0"/>
   <circle cx="724.0" cy="181.0" fill="rgb(0, 0, 0)" r="2.0" stroke="none" stroke-width="5.0"/>
   <circle cx="724.0" cy="191.0" fill="rgb(0, 0, 0)" r="2.0" stroke="none" stroke-width="5.0"/>
   <circle cx="724.0" cy="201.0" fill="rgb(0, 0, 0)" r="2.0" stroke="none" stroke-width="5.0"/>
   <circle cx="724.0" cy="211.0" fill="rgb(0, 0, 0)" r="2.0" stroke="none" stroke-width="5.0"/>
   <circle cx="724.0" cy="221.0" fill="rgb(0, 0, 0)" r="2.0" stroke="none" stroke-width="5.0"/>
   <circle cx="724.0" cy="231.0" fill="rgb(0, 0, 0)" r="2.0" stroke="none" stroke-width="5.0"/>
   <circle cx="724.0" cy="241.0" fill="rgb(0, 0, 0)" r="2.0" stroke="none" stroke-width="5.0"/>
   <text fill="rgb(0, 0, 0)" font-family="SansSerif" font-size="12" font-style="italic" x="255.0" y="466.0">BITS PRA S1</text>
   <text fill="rgb(0, 0, 0)" font-family="Monospaced" font-size="12" x="174.0" y="115.0">0</text>
   <circle cx="184.0" cy="111.0" fill="rgb(0, 0, 0)" r="2.0" stroke="none" stroke-width="1.0"/>
   <text fill="rgb(0, 0, 0)" font-family="SansSerif" font-size="12" font-style="italic" x="80.0" y="115.0">BITS MENOS</text>
   <text fill="rgb(0, 0, 0)" font-family="SansSerif" font-size="12" font-style="italic" x="68.0" y="132.0">SIGNIFICATIVOS</text>
   <polyline fill="none" points="744,428 744,429" stroke="rgb(0, 0, 0)" stroke-linecap="square" stroke-width="4.0"/>
   <polygon fill="none" points="735,426 735,332 744,322 753,332 753,426" stroke="rgb(0, 0, 0)" stroke-linecap="square" stroke-width="2.0"/>
   <text fill="rgb(0, 0, 0)" font-family="Monospaced" font-size="12" transform="rotate(90.0,738.0,362.0)" x="738.0" y="362.0">x8</text>
   <text fill="rgb(0, 0, 0)" font-family="Monospaced" font-size="16" font-weight="bold" x="733.0" y="315.0">S2</text>
   <circle cx="744.0" cy="431.0" fill="rgb(0, 0, 0)" r="2.0" stroke="none" stroke-width="2.0"/>
   <polyline fill="none" points="744,158 744,159" stroke="rgb(0, 0, 0)" stroke-linecap="square" stroke-width="4.0"/>
   <polygon fill="none" points="735,156 735,62 744,52 753,62 753,156" stroke="rgb(0, 0, 0)" stroke-linecap="square" stroke-width="2.0"/>
   <text fill="rgb(0, 0, 0)" font-family="Monospaced" font-size="12" transform="rotate(90.0,738.0,92.0)" x="738.0" y="92.0">x8</text>
   <text fill="rgb(0, 0, 0)" font-family="Monospaced" font-size="16" font-weight="bold" x="733.0" y="45.0">S1</text>
   <circle cx="744.0" cy="161.0" fill="rgb(0, 0, 0)" r="2.0" stroke="none" stroke-width="2.0"/>
   <text fill="rgb(0, 0, 0)" font-family="SansSerif" font-size="12" font-weight="bold" x="727.0" y="291.0">AZUL</text>
   <text fill="rgb(0, 0, 0)" font-family="SansSerif" font-size="12" font-weight="bold" x="708.0" y="21.0">VERMELHO</text>
   <rect fill="none" height="18" stroke="rgb(0, 0, 0)" stroke-linecap="square" stroke-width="2.0" width="38" x="36" y="273"/>
   <text fill="rgb(0, 0, 0)" font-family="SansSerif" font-size="12" x="47.0" y="287.0">x4</text>
   <text fill="rgb(0, 0, 0)" font-family="SansSerif" font-size="16" font-weight="bold" x="5.0" y="308.0">DIFERENCA</text>
   <circle cx="54.0" cy="271.0" fill="rgb(0, 0, 0)" r="2.0" stroke="none" stroke-width="2.0"/>
</svg>
