<?xml version="1.0" encoding="UTF-8" standalone="no"?>
<svg style="background-color: #FFFFFF;" xmlns="http://www.w3.org/2000/svg" version="1.1" viewBox="0 0 930 561">
<rect width="100%" height="100%" fill="#FFFFFF"/>
   <polyline fill="none" points="525,395 635,395 635,425" stroke="rgb(0, 0, 0)" stroke-linecap="square" stroke-width="3.0"/>
   <polyline fill="none" points="115,115 265,115" stroke="rgb(0, 0, 0)" stroke-linecap="square" stroke-width="3.0"/>
   <polyline fill="none" points="525,415 645,415 645,425" stroke="rgb(0, 0, 0)" stroke-linecap="square" stroke-width="3.0"/>
   <polyline fill="none" points="485,155 535,155 535,195 665,195" stroke="rgb(0, 0, 0)" stroke-linecap="square" stroke-width="4.0"/>
   <polyline fill="none" points="525,355 615,355 615,425" stroke="rgb(0, 0, 0)" stroke-linecap="square" stroke-width="3.0"/>
   <polyline fill="none" points="525,455 575,455 575,535 625,535 625,485" stroke="rgb(0, 0, 0)" stroke-linecap="square" stroke-width="3.0"/>
   <polyline fill="none" points="125,155 155,155 265,155" stroke="rgb(0, 0, 0)" stroke-linecap="square" stroke-width="4.0"/>
   <polyline fill="none" points="615,485 615,525 585,525 585,435 525,435" stroke="rgb(0, 0, 0)" stroke-linecap="square" stroke-width="3.0"/>
   <polyline fill="none" points="265,135 255,135 255,235 345,235" stroke="rgb(0, 0, 0)" stroke-linecap="square" stroke-width="3.0"/>
   <polyline fill="none" points="155,155 155,265" stroke="rgb(0, 0, 0)" stroke-linecap="square" stroke-width="4.0"/>
   <polyline fill="none" points="525,495 555,495 555,555 645,555 645,485" stroke="rgb(0, 0, 0)" stroke-linecap="square" stroke-width="3.0"/>
   <polyline fill="none" points="485,175 525,175 525,235 575,235" stroke="rgb(0, 0, 0)" stroke-linecap="square" stroke-width="3.0"/>
   <polyline fill="none" points="635,485 635,545 565,545 565,475 525,475" stroke="rgb(0, 0, 0)" stroke-linecap="square" stroke-width="3.0"/>
   <polyline fill="none" points="555,85 535,85 535,135 485,135" stroke="rgb(0, 0, 0)" stroke-linecap="square" stroke-width="4.0"/>
   <polyline fill="none" points="525,375 625,375 625,425" stroke="rgb(0, 0, 0)" stroke-linecap="square" stroke-width="3.0"/>
   <polyline fill="none" points="485,115 675,115 755,115 825,115 905,115" stroke="rgb(0, 0, 0)" stroke-linecap="square" stroke-width="3.0"/>
   <circle cx="755.0" cy="115.0" fill="rgb(0, 0, 0)" r="5.0" stroke="none" stroke-width="3.0"/>
   <circle cx="675.0" cy="115.0" fill="rgb(0, 0, 0)" r="5.0" stroke="none" stroke-width="3.0"/>
   <circle cx="825.0" cy="115.0" fill="rgb(0, 0, 0)" r="5.0" stroke="none" stroke-width="3.0"/>
   <circle cx="155.0" cy="155.0" fill="rgb(0, 0, 0)" r="6.0" stroke="none" stroke-width="3.0"/>
   <rect fill="none" height="18" stroke="rgb(0, 0, 0)" stroke-linecap="square" stroke-width="2.0" width="18" x="97" y="107"/>
   <text fill="rgb(0, 0, 0)" font-family="SansSerif" font-size="12" x="98.0" y="121.0">x1</text>
   <text fill="rgb(0, 0, 0)" font-family="SansSerif" font-size="13" font-weight="bold" x="5.0" y="121.0">CONFIRMAR</text>
   <circle cx="115.0" cy="115.0" fill="rgb(0, 0, 0)" r="2.0" stroke="none" stroke-width="2.0"/>
   <rect fill="none" height="18" stroke="rgb(0, 0, 0)" stroke-linecap="square" stroke-width="2.0" width="38" x="87" y="147"/>
   <text fill="rgb(0, 0, 0)" font-family="SansSerif" font-size="12" x="98.0" y="161.0">x4</text>
   <text fill="rgb(0, 0, 0)" font-family="SansSerif" font-size="16" font-weight="bold" x="26.0" y="162.0">CHUTE</text>
   <circle cx="125.0" cy="155.0" fill="rgb(0, 0, 0)" r="2.0" stroke="none" stroke-width="2.0"/>
   <polyline fill="none" points="305,415 225,415 225,285 225,271" stroke="rgb(0, 0, 0)" stroke-linecap="square" stroke-width="3.0"/>
   <polyline fill="none" points="305,395 205,395 205,285 205,271" stroke="rgb(0, 0, 0)" stroke-linecap="square" stroke-width="3.0"/>
   <polyline fill="none" points="305,375 185,375 185,285 185,271" stroke="rgb(0, 0, 0)" stroke-linecap="square" stroke-width="3.0"/>
   <polyline fill="none" points="305,355 165,355 165,285 165,271" stroke="rgb(0, 0, 0)" stroke-linecap="square" stroke-width="3.0"/>
   <polyline fill="none" points="224,271 161,271 156,266" stroke="rgb(0, 0, 0)" stroke-linecap="square" stroke-width="5.0"/>
   <text fill="rgb(0, 0, 0)" font-family="SansSerif" font-size="7" transform="rotate(90.0,228.0,274.0)" x="228.0" y="274.0">0</text>
   <text fill="rgb(0, 0, 0)" font-family="SansSerif" font-size="7" transform="rotate(90.0,208.0,274.0)" x="208.0" y="274.0">1</text>
   <text fill="rgb(0, 0, 0)" font-family="SansSerif" font-size="7" transform="rotate(90.0,188.0,274.0)" x="188.0" y="274.0">2</text>
   <text fill="rgb(0, 0, 0)" font-family="SansSerif" font-size="7" transform="rotate(90.0,168.0,274.0)" x="168.0" y="274.0">3</text>
   <circle cx="155.0" cy="265.0" fill="rgb(0, 0, 0)" r="2.0" stroke="none" stroke-width="5.0"/>
   <circle cx="225.0" cy="285.0" fill="rgb(0, 0, 0)" r="2.0" stroke="none" stroke-width="5.0"/>
   <circle cx="205.0" cy="285.0" fill="rgb(0, 0, 0)" r="2.0" stroke="none" stroke-width="5.0"/>
   <circle cx="185.0" cy="285.0" fill="rgb(0, 0, 0)" r="2.0" stroke="none" stroke-width="5.0"/>
   <circle cx="165.0" cy="285.0" fill="rgb(0, 0, 0)" r="2.0" stroke="none" stroke-width="5.0"/>
   <polyline fill="none" points="351,235 346,235" stroke="rgb(0, 0, 0)" stroke-linecap="square" stroke-width="3.0"/>
   <polygon fill="none" points="385,244 361,244 351,235 361,226 385,226" stroke="rgb(0, 0, 0)" stroke-linecap="square" stroke-width="2.0"/>
   <text fill="rgb(0, 0, 0)" font-family="Monospaced" font-size="12" x="361.0" y="241.0">x1</text>
   <text fill="rgb(0, 0, 0)" font-family="Monospaced" font-size="16" font-weight="bold" x="387.0" y="242.0">novo</text>
   <circle cx="345.0" cy="235.0" fill="rgb(0, 0, 0)" r="2.0" stroke="none" stroke-width="2.0"/>
   <circle cx="585.0" cy="235.0" fill="none" r="9.0" stroke="rgb(0, 0, 0)" stroke-width="2.0"/>
   <text fill="rgb(0, 0, 0)" font-family="SansSerif" font-size="16" font-weight="bold" x="597.0" y="242.0">acertou</text>
   <circle cx="575.0" cy="235.0" fill="rgb(0, 0, 0)" r="2.0" stroke="none" stroke-width="1.0"/>
   <rect fill="none" height="60" stroke="rgb(0, 0, 0)" stroke-linecap="square" stroke-width="2.0" width="40" x="610" y="425"/>
   <rect fill="rgb(64, 64, 64)" height="4" stroke="none" stroke-linecap="square" stroke-width="1.0" width="19" x="618" y="433"/>
   <rect fill="rgb(64, 64, 64)" height="19" stroke="none" stroke-linecap="square" stroke-width="1.0" width="4" x="638" y="435"/>
   <rect fill="rgb(64, 64, 64)" height="19" stroke="none" stroke-linecap="square" stroke-width="1.0" width="4" x="638" y="455"/>
   <rect fill="rgb(64, 64, 64)" height="4" stroke="none" stroke-linecap="square" stroke-width="1.0" width="19" x="618" y="472"/>
   <rect fill="rgb(64, 64, 64)" height="19" stroke="none" stroke-linecap="square" stroke-width="1.0" width="4" x="613" y="455"/>
   <rect fill="rgb(64, 64, 64)" height="19" stroke="none" stroke-linecap="square" stroke-width="1.0" width="4" x="613" y="435"/>
   <rect fill="rgb(64, 64, 64)" height="4" stroke="none" stroke-linecap="square" stroke-width="1.0" width="19" x="618" y="453"/>
   <circle cx="645.0" cy="475.0" fill="rgb(64, 64, 64)" r="2.5" stroke="none" stroke-width="1.0"/>
   <circle cx="635.0" cy="425.0" fill="rgb(0, 0, 0)" r="2.0" stroke="none" stroke-width="1.0"/>
   <circle cx="645.0" cy="425.0" fill="rgb(0, 0, 0)" r="2.0" stroke="none" stroke-width="1.0"/>
   <circle cx="635.0" cy="485.0" fill="rgb(0, 0, 0)" r="2.0" stroke="none" stroke-width="1.0"/>
   <circle cx="625.0" cy="485.0" fill="rgb(0, 0, 0)" r="2.0" stroke="none" stroke-width="1.0"/>
   <circle cx="615.0" cy="485.0" fill="rgb(0, 0, 0)" r="2.0" stroke="none" stroke-width="1.0"/>
   <circle cx="625.0" cy="425.0" fill="rgb(0, 0, 0)" r="2.0" stroke="none" stroke-width="1.0"/>
   <circle cx="615.0" cy="425.0" fill="rgb(0, 0, 0)" r="2.0" stroke="none" stroke-width="1.0"/>
   <circle cx="645.0" cy="485.0" fill="rgb(0, 0, 0)" r="2.0" stroke="none" stroke-width="1.0"/>
   <rect fill="rgb(0, 0, 0)" height="3" stroke="none" stroke-linecap="square" stroke-width="1.0" width="10" x="265" y="114"/>
   <text fill="rgb(64, 64, 64)" font-family="Courier 10 Pitch" font-size="12" x="280.0" y="119.0">CONFIRMAR</text>
   <rect fill="rgb(0, 0, 0)" height="3" stroke="none" stroke-linecap="square" stroke-width="1.0" width="10" x="265" y="134"/>
   <text fill="rgb(64, 64, 64)" font-family="Courier 10 Pitch" font-size="12" x="280.0" y="139.0">novo</text>
   <rect fill="rgb(0, 0, 0)" height="4" stroke="none" stroke-linecap="square" stroke-width="1.0" width="10" x="265" y="153"/>
   <text fill="rgb(64, 64, 64)" font-family="Courier 10 Pitch" font-size="12" x="280.0" y="159.0">CHUTE</text>
   <rect fill="rgb(0, 0, 0)" height="3" stroke="none" stroke-linecap="square" stroke-width="1.0" width="10" x="475" y="114"/>
   <text fill="rgb(64, 64, 64)" font-family="Courier 10 Pitch" font-size="12" x="435.0" y="119.0">verde</text>
   <rect fill="rgb(0, 0, 0)" height="4" stroke="none" stroke-linecap="square" stroke-width="1.0" width="10" x="475" y="133"/>
   <text fill="rgb(64, 64, 64)" font-family="Courier 10 Pitch" font-size="12" x="414.0" y="139.0">VERMELHO</text>
   <rect fill="rgb(0, 0, 0)" height="4" stroke="none" stroke-linecap="square" stroke-width="1.0" width="10" x="475" y="153"/>
   <text fill="rgb(64, 64, 64)" font-family="Courier 10 Pitch" font-size="12" x="442.0" y="159.0">AZUL</text>
   <rect fill="rgb(0, 0, 0)" height="3" stroke="none" stroke-linecap="square" stroke-width="1.0" width="10" x="475" y="174"/>
   <text fill="rgb(64, 64, 64)" font-family="Courier 10 Pitch" font-size="12" x="421.0" y="179.0">ACERTOU</text>
   <rect fill="rgb(0, 0, 0)" height="20" stroke="none" stroke-linecap="square" stroke-width="1.0" width="200" x="275" y="185"/>
   <rect fill="none" height="100" stroke="rgb(0, 0, 0)" stroke-linecap="square" stroke-width="2.0" width="200" x="275" y="105"/>
   <text fill="rgb(255, 255, 255)" font-family="Courier 10 Pitch" font-size="14" font-weight="bold" x="319.0" y="199.0">circuito_guess</text>
   <circle cx="265.0" cy="115.0" fill="rgb(0, 0, 0)" r="2.0" stroke="none" stroke-width="1.0"/>
   <circle cx="265.0" cy="135.0" fill="rgb(0, 0, 0)" r="2.0" stroke="none" stroke-width="1.0"/>
   <circle cx="265.0" cy="155.0" fill="rgb(0, 0, 0)" r="2.0" stroke="none" stroke-width="1.0"/>
   <circle cx="485.0" cy="115.0" fill="rgb(0, 0, 0)" r="2.0" stroke="none" stroke-width="1.0"/>
   <circle cx="485.0" cy="135.0" fill="rgb(0, 0, 0)" r="2.0" stroke="none" stroke-width="1.0"/>
   <circle cx="485.0" cy="155.0" fill="rgb(0, 0, 0)" r="2.0" stroke="none" stroke-width="1.0"/>
   <circle cx="485.0" cy="175.0" fill="rgb(0, 0, 0)" r="2.0" stroke="none" stroke-width="1.0"/>
   <rect fill="rgb(0, 0, 0)" height="3" stroke="none" stroke-linecap="square" stroke-width="1.0" width="10" x="305" y="354"/>
   <text fill="rgb(64, 64, 64)" font-family="Courier 10 Pitch" font-size="12" x="320.0" y="359.0">A</text>
   <rect fill="rgb(0, 0, 0)" height="3" stroke="none" stroke-linecap="square" stroke-width="1.0" width="10" x="305" y="374"/>
   <text fill="rgb(64, 64, 64)" font-family="Courier 10 Pitch" font-size="12" x="320.0" y="379.0">B</text>
   <rect fill="rgb(0, 0, 0)" height="3" stroke="none" stroke-linecap="square" stroke-width="1.0" width="10" x="305" y="394"/>
   <text fill="rgb(64, 64, 64)" font-family="Courier 10 Pitch" font-size="12" x="320.0" y="399.0">C</text>
   <rect fill="rgb(0, 0, 0)" height="3" stroke="none" stroke-linecap="square" stroke-width="1.0" width="10" x="305" y="414"/>
   <text fill="rgb(64, 64, 64)" font-family="Courier 10 Pitch" font-size="12" x="320.0" y="419.0">D</text>
   <rect fill="rgb(0, 0, 0)" height="3" stroke="none" stroke-linecap="square" stroke-width="1.0" width="10" x="515" y="354"/>
   <text fill="rgb(64, 64, 64)" font-family="Courier 10 Pitch" font-size="12" x="489.0" y="359.0">up1</text>
   <rect fill="rgb(0, 0, 0)" height="3" stroke="none" stroke-linecap="square" stroke-width="1.0" width="10" x="515" y="374"/>
   <text fill="rgb(64, 64, 64)" font-family="Courier 10 Pitch" font-size="12" x="489.0" y="379.0">up2</text>
   <rect fill="rgb(0, 0, 0)" height="3" stroke="none" stroke-linecap="square" stroke-width="1.0" width="10" x="515" y="394"/>
   <text fill="rgb(64, 64, 64)" font-family="Courier 10 Pitch" font-size="12" x="489.0" y="399.0">up3</text>
   <rect fill="rgb(0, 0, 0)" height="3" stroke="none" stroke-linecap="square" stroke-width="1.0" width="10" x="515" y="414"/>
   <text fill="rgb(64, 64, 64)" font-family="Courier 10 Pitch" font-size="12" x="489.0" y="419.0">up4</text>
   <rect fill="rgb(0, 0, 0)" height="3" stroke="none" stroke-linecap="square" stroke-width="1.0" width="10" x="515" y="434"/>
   <text fill="rgb(64, 64, 64)" font-family="Courier 10 Pitch" font-size="12" x="475.0" y="439.0">down1</text>
   <rect fill="rgb(0, 0, 0)" height="3" stroke="none" stroke-linecap="square" stroke-width="1.0" width="10" x="515" y="454"/>
   <text fill="rgb(64, 64, 64)" font-family="Courier 10 Pitch" font-size="12" x="475.0" y="459.0">down2</text>
   <rect fill="rgb(0, 0, 0)" height="3" stroke="none" stroke-linecap="square" stroke-width="1.0" width="10" x="515" y="474"/>
   <text fill="rgb(64, 64, 64)" font-family="Courier 10 Pitch" font-size="12" x="475.0" y="479.0">down3</text>
   <rect fill="rgb(0, 0, 0)" height="3" stroke="none" stroke-linecap="square" stroke-width="1.0" width="10" x="515" y="494"/>
   <text fill="rgb(64, 64, 64)" font-family="Courier 10 Pitch" font-size="12" x="475.0" y="499.0">down4</text>
   <rect fill="rgb(0, 0, 0)" height="20" stroke="none" stroke-linecap="square" stroke-width="1.0" width="200" x="315" y="505"/>
   <rect fill="none" height="180" stroke="rgb(0, 0, 0)" stroke-linecap="square" stroke-width="2.0" width="200" x="315" y="345"/>
   <text fill="rgb(255, 255, 255)" font-family="Courier 10 Pitch" font-size="14" font-weight="bold" x="351.0" y="519.0">circuito_decoder</text>
   <circle cx="305.0" cy="355.0" fill="rgb(0, 0, 0)" r="2.0" stroke="none" stroke-width="1.0"/>
   <circle cx="305.0" cy="375.0" fill="rgb(0, 0, 0)" r="2.0" stroke="none" stroke-width="1.0"/>
   <circle cx="305.0" cy="395.0" fill="rgb(0, 0, 0)" r="2.0" stroke="none" stroke-width="1.0"/>
   <circle cx="305.0" cy="415.0" fill="rgb(0, 0, 0)" r="2.0" stroke="none" stroke-width="1.0"/>
   <circle cx="525.0" cy="355.0" fill="rgb(0, 0, 0)" r="2.0" stroke="none" stroke-width="1.0"/>
   <circle cx="525.0" cy="375.0" fill="rgb(0, 0, 0)" r="2.0" stroke="none" stroke-width="1.0"/>
   <circle cx="525.0" cy="395.0" fill="rgb(0, 0, 0)" r="2.0" stroke="none" stroke-width="1.0"/>
   <circle cx="525.0" cy="415.0" fill="rgb(0, 0, 0)" r="2.0" stroke="none" stroke-width="1.0"/>
   <circle cx="525.0" cy="435.0" fill="rgb(0, 0, 0)" r="2.0" stroke="none" stroke-width="1.0"/>
   <circle cx="525.0" cy="455.0" fill="rgb(0, 0, 0)" r="2.0" stroke="none" stroke-width="1.0"/>
   <circle cx="525.0" cy="475.0" fill="rgb(0, 0, 0)" r="2.0" stroke="none" stroke-width="1.0"/>
   <circle cx="525.0" cy="495.0" fill="rgb(0, 0, 0)" r="2.0" stroke="none" stroke-width="1.0"/>
   <polyline fill="none" points="655,175 655,189" stroke="rgb(0, 0, 0)" stroke-linecap="square" stroke-width="3.0"/>
   <polyline fill="none" points="645,175 645,189" stroke="rgb(0, 0, 0)" stroke-linecap="square" stroke-width="3.0"/>
   <polyline fill="none" points="635,175 635,189" stroke="rgb(0, 0, 0)" stroke-linecap="square" stroke-width="3.0"/>
   <polyline fill="none" points="625,175 625,189" stroke="rgb(0, 0, 0)" stroke-linecap="square" stroke-width="3.0"/>
   <polyline fill="none" points="915,125 915,165 615,165 615,175 615,189" stroke="rgb(0, 0, 0)" stroke-linecap="square" stroke-width="3.0"/>
   <polyline fill="none" points="835,125 835,155 605,155 605,175 605,189" stroke="rgb(0, 0, 0)" stroke-linecap="square" stroke-width="3.0"/>
   <polyline fill="none" points="765,125 765,145 595,145 595,175 595,189" stroke="rgb(0, 0, 0)" stroke-linecap="square" stroke-width="3.0"/>
   <polyline fill="none" points="685,125 685,135 585,135 585,175 585,189" stroke="rgb(0, 0, 0)" stroke-linecap="square" stroke-width="3.0"/>
   <polyline fill="none" points="586,189 659,189 664,194" stroke="rgb(0, 0, 0)" stroke-linecap="square" stroke-width="5.0"/>
   <text fill="rgb(0, 0, 0)" font-family="SansSerif" font-size="7" transform="rotate(90.0,658.0,182.0)" x="658.0" y="182.0">0</text>
   <text fill="rgb(0, 0, 0)" font-family="SansSerif" font-size="7" transform="rotate(90.0,648.0,182.0)" x="648.0" y="182.0">1</text>
   <text fill="rgb(0, 0, 0)" font-family="SansSerif" font-size="7" transform="rotate(90.0,638.0,182.0)" x="638.0" y="182.0">2</text>
   <text fill="rgb(0, 0, 0)" font-family="SansSerif" font-size="7" transform="rotate(90.0,628.0,182.0)" x="628.0" y="182.0">3</text>
   <text fill="rgb(0, 0, 0)" font-family="SansSerif" font-size="7" transform="rotate(90.0,618.0,182.0)" x="618.0" y="182.0">4</text>
   <text fill="rgb(0, 0, 0)" font-family="SansSerif" font-size="7" transform="rotate(90.0,608.0,182.0)" x="608.0" y="182.0">5</text>
   <text fill="rgb(0, 0, 0)" font-family="SansSerif" font-size="7" transform="rotate(90.0,598.0,182.0)" x="598.0" y="182.0">6</text>
   <text fill="rgb(0, 0, 0)" font-family="SansSerif" font-size="7" transform="rotate(90.0,588.0,182.0)" x="588.0" y="182.0">7</text>
   <circle cx="665.0" cy="195.0" fill="rgb(0, 0, 0)" r="2.0" stroke="none" stroke-width="5.0"/>
   <circle cx="655.0" cy="175.0" fill="rgb(0, 0, 0)" r="2.0" stroke="none" stroke-width="5.0"/>
   <circle cx="645.0" cy="175.0" fill="rgb(0, 0, 0)" r="2.0" stroke="none" stroke-width="5.0"/>
   <circle cx="635.0" cy="175.0" fill="rgb(0, 0, 0)" r="2.0" stroke="none" stroke-width="5.0"/>
   <circle cx="625.0" cy="175.0" fill="rgb(0, 0, 0)" r="2.0" stroke="none" stroke-width="5.0"/>
   <circle cx="615.0" cy="175.0" fill="rgb(0, 0, 0)" r="2.0" stroke="none" stroke-width="5.0"/>
   <circle cx="605.0" cy="175.0" fill="rgb(0, 0, 0)" r="2.0" stroke="none" stroke-width="5.0"/>
   <circle cx="595.0" cy="175.0" fill="rgb(0, 0, 0)" r="2.0" stroke="none" stroke-width="5.0"/>
   <circle cx="585.0" cy="175.0" fill="rgb(0, 0, 0)" r="2.0" stroke="none" stroke-width="5.0"/>
   <circle cx="835.0" cy="115.0" fill="none" r="9.0" stroke="rgb(0, 0, 0)" stroke-width="2.0"/>
   <circle cx="825.0" cy="115.0" fill="rgb(0, 0, 0)" r="2.0" stroke="none" stroke-width="1.0"/>
   <circle cx="835.0" cy="105.0" fill="rgb(0, 0, 0)" r="2.0" stroke="none" stroke-width="1.0"/>
   <circle cx="835.0" cy="125.0" fill="rgb(0, 0, 0)" r="2.0" stroke="none" stroke-width="1.0"/>
   <circle cx="765.0" cy="115.0" fill="none" r="9.0" stroke="rgb(0, 0, 0)" stroke-width="2.0"/>
   <circle cx="755.0" cy="115.0" fill="rgb(0, 0, 0)" r="2.0" stroke="none" stroke-width="1.0"/>
   <circle cx="765.0" cy="105.0" fill="rgb(0, 0, 0)" r="2.0" stroke="none" stroke-width="1.0"/>
   <circle cx="765.0" cy="125.0" fill="rgb(0, 0, 0)" r="2.0" stroke="none" stroke-width="1.0"/>
   <circle cx="685.0" cy="115.0" fill="none" r="9.0" stroke="rgb(0, 0, 0)" stroke-width="2.0"/>
   <circle cx="675.0" cy="115.0" fill="rgb(0, 0, 0)" r="2.0" stroke="none" stroke-width="1.0"/>
   <circle cx="685.0" cy="105.0" fill="rgb(0, 0, 0)" r="2.0" stroke="none" stroke-width="1.0"/>
   <circle cx="685.0" cy="125.0" fill="rgb(0, 0, 0)" r="2.0" stroke="none" stroke-width="1.0"/>
   <circle cx="915.0" cy="115.0" fill="none" r="9.0" stroke="rgb(0, 0, 0)" stroke-width="2.0"/>
   <circle cx="905.0" cy="115.0" fill="rgb(0, 0, 0)" r="2.0" stroke="none" stroke-width="1.0"/>
   <circle cx="915.0" cy="105.0" fill="rgb(0, 0, 0)" r="2.0" stroke="none" stroke-width="1.0"/>
   <circle cx="915.0" cy="125.0" fill="rgb(0, 0, 0)" r="2.0" stroke="none" stroke-width="1.0"/>
   <polyline fill="none" points="575,5 561,5" stroke="rgb(0, 0, 0)" stroke-linecap="square" stroke-width="3.0"/>
   <polyline fill="none" points="575,15 561,15" stroke="rgb(0, 0, 0)" stroke-linecap="square" stroke-width="3.0"/>
   <polyline fill="none" points="575,25 561,25" stroke="rgb(0, 0, 0)" stroke-linecap="square" stroke-width="3.0"/>
   <polyline fill="none" points="575,35 561,35" stroke="rgb(0, 0, 0)" stroke-linecap="square" stroke-width="3.0"/>
   <polyline fill="none" points="915,105 915,45 575,45 561,45" stroke="rgb(0, 0, 0)" stroke-linecap="square" stroke-width="3.0"/>
   <polyline fill="none" points="835,105 835,55 575,55 561,55" stroke="rgb(0, 0, 0)" stroke-linecap="square" stroke-width="3.0"/>
   <polyline fill="none" points="765,105 765,65 575,65 561,65" stroke="rgb(0, 0, 0)" stroke-linecap="square" stroke-width="3.0"/>
   <polyline fill="none" points="685,105 685,75 575,75 561,75" stroke="rgb(0, 0, 0)" stroke-linecap="square" stroke-width="3.0"/>
   <polyline fill="none" points="561,6 561,79 556,84" stroke="rgb(0, 0, 0)" stroke-linecap="square" stroke-width="5.0"/>
   <text fill="rgb(0, 0, 0)" font-family="SansSerif" font-size="7" x="564.0" y="12.0">0</text>
   <text fill="rgb(0, 0, 0)" font-family="SansSerif" font-size="7" x="564.0" y="22.0">1</text>
   <text fill="rgb(0, 0, 0)" font-family="SansSerif" font-size="7" x="564.0" y="32.0">2</text>
   <text fill="rgb(0, 0, 0)" font-family="SansSerif" font-size="7" x="564.0" y="42.0">3</text>
   <text fill="rgb(0, 0, 0)" font-family="SansSerif" font-size="7" x="564.0" y="52.0">4</text>
   <text fill="rgb(0, 0, 0)" font-family="SansSerif" font-size="7" x="564.0" y="62.0">5</text>
   <text fill="rgb(0, 0, 0)" font-family="SansSerif" font-size="7" x="564.0" y="72.0">6</text>
   <text fill="rgb(0, 0, 0)" font-family="SansSerif" font-size="7" x="564.0" y="82.0">7</text>
   <circle cx="555.0" cy="85.0" fill="rgb(0, 0, 0)" r="2.0" stroke="none" stroke-width="5.0"/>
   <circle cx="575.0" cy="5.0" fill="rgb(0, 0, 0)" r="2.0" stroke="none" stroke-width="5.0"/>
   <circle cx="575.0" cy="15.0" fill="rgb(0, 0, 0)" r="2.0" stroke="none" stroke-width="5.0"/>
   <circle cx="575.0" cy="25.0" fill="rgb(0, 0, 0)" r="2.0" stroke="none" stroke-width="5.0"/>
   <circle cx="575.0" cy="35.0" fill="rgb(0, 0, 0)" r="2.0" stroke="none" stroke-width="5.0"/>
   <circle cx="575.0" cy="45.0" fill="rgb(0, 0, 0)" r="2.0" stroke="none" stroke-width="5.0"/>
   <circle cx="575.0" cy="55.0" fill="rgb(0, 0, 0)" r="2.0" stroke="none" stroke-width="5.0"/>
   <circle cx="575.0" cy="65.0" fill="rgb(0, 0, 0)" r="2.0" stroke="none" stroke-width="5.0"/>
   <circle cx="575.0" cy="75.0" fill="rgb(0, 0, 0)" r="2.0" stroke="none" stroke-width="5.0"/>
</svg>
