<?xml version="1.0" encoding="UTF-8" standalone="no"?>
<svg xmlns="http://www.w3.org/2000/svg" version="1.1" viewBox="0 0 895 595">
  <rect width="100%" height="100%" fill="white"/>
   <polyline fill="none" points="98,522 148,522 198,522" stroke="rgb(0, 0, 0)" stroke-linecap="square" stroke-width="4.0"/>
   <polyline fill="none" points="168,262 848,262 848,132" stroke="rgb(0, 0, 0)" stroke-linecap="square" stroke-width="3.0"/>
   <polyline fill="none" points="208,382 168,382 168,542 198,542" stroke="rgb(0, 0, 0)" stroke-linecap="square" stroke-width="4.0"/>
   <polyline fill="none" points="478,132 478,152 528,152 528,382 508,382" stroke="rgb(0, 0, 0)" stroke-linecap="square" stroke-width="4.0"/>
   <polyline fill="none" points="278,392 288,392 288,382" stroke="rgb(0, 0, 0)" stroke-linecap="square" stroke-width="4.0"/>
   <polyline fill="none" points="618,132 618,152 568,152 568,402 508,402" stroke="rgb(0, 0, 0)" stroke-linecap="square" stroke-width="4.0"/>
   <polyline fill="none" points="468,52 468,102" stroke="rgb(0, 0, 0)" stroke-linecap="square" stroke-width="4.0"/>
   <polyline fill="none" points="638,132 638,192 458,192 408,192" stroke="rgb(0, 0, 0)" stroke-linecap="square" stroke-width="4.0"/>
   <polyline fill="none" points="98,382 168,382" stroke="rgb(0, 0, 0)" stroke-linecap="square" stroke-width="4.0"/>
   <polyline fill="none" points="628,52 628,102" stroke="rgb(0, 0, 0)" stroke-linecap="square" stroke-width="4.0"/>
   <polyline fill="none" points="418,522 868,522 868,132" stroke="rgb(0, 0, 0)" stroke-linecap="square" stroke-width="3.0"/>
   <polyline fill="none" points="208,402 148,402 148,522" stroke="rgb(0, 0, 0)" stroke-linecap="square" stroke-width="4.0"/>
   <polyline fill="none" points="458,132 458,192" stroke="rgb(0, 0, 0)" stroke-linecap="square" stroke-width="4.0"/>
   <circle cx="168.0" cy="262.0" fill="rgb(0, 0, 0)" r="5.0" stroke="none" stroke-width="4.0"/>
   <circle cx="148.0" cy="522.0" fill="rgb(0, 0, 0)" r="6.0" stroke="none" stroke-width="4.0"/>
   <circle cx="458.0" cy="192.0" fill="rgb(0, 0, 0)" r="6.0" stroke="none" stroke-width="4.0"/>
   <circle cx="168.0" cy="382.0" fill="rgb(0, 0, 0)" r="6.0" stroke="none" stroke-width="4.0"/>
   <rect fill="rgb(0, 0, 0)" height="4" stroke="none" stroke-linecap="square" stroke-width="1.0" width="10" x="288" y="380"/>
   <text fill="rgb(64, 64, 64)" font-family="Courier 10 Pitch" font-size="12" x="303.0" y="386.0">DIFERENCA</text>
   <rect fill="rgb(0, 0, 0)" height="4" stroke="none" stroke-linecap="square" stroke-width="1.0" width="10" x="498" y="380"/>
   <text fill="rgb(64, 64, 64)" font-family="Courier 10 Pitch" font-size="12" x="479.0" y="386.0">S1</text>
   <rect fill="rgb(0, 0, 0)" height="4" stroke="none" stroke-linecap="square" stroke-width="1.0" width="10" x="498" y="400"/>
   <text fill="rgb(64, 64, 64)" font-family="Courier 10 Pitch" font-size="12" x="479.0" y="406.0">S2</text>
   <rect fill="rgb(0, 0, 0)" height="20" stroke="none" stroke-linecap="square" stroke-width="1.0" width="200" x="298" y="412"/>
   <rect fill="none" height="60" stroke="rgb(0, 0, 0)" stroke-linecap="square" stroke-width="2.0" width="200" x="298" y="372"/>
   <text fill="rgb(255, 255, 255)" font-family="Courier 10 Pitch" font-size="14" font-weight="bold" x="342.0" y="426.0">circuito_cores</text>
   <circle cx="288.0" cy="382.0" fill="rgb(0, 0, 0)" r="2.0" stroke="none" stroke-width="1.0"/>
   <circle cx="508.0" cy="382.0" fill="rgb(0, 0, 0)" r="2.0" stroke="none" stroke-width="1.0"/>
   <circle cx="508.0" cy="402.0" fill="rgb(0, 0, 0)" r="2.0" stroke="none" stroke-width="1.0"/>
   <rect fill="rgb(0, 0, 0)" height="4" stroke="none" stroke-linecap="square" stroke-width="1.0" width="10" x="198" y="520"/>
   <text fill="rgb(64, 64, 64)" font-family="Courier 10 Pitch" font-size="12" x="213.0" y="526.0">ESCOLHA_C...</text>
   <rect fill="rgb(0, 0, 0)" height="4" stroke="none" stroke-linecap="square" stroke-width="1.0" width="10" x="198" y="540"/>
   <text fill="rgb(64, 64, 64)" font-family="Courier 10 Pitch" font-size="12" x="213.0" y="546.0">ESCOLHA_U...</text>
   <rect fill="rgb(0, 0, 0)" height="3" stroke="none" stroke-linecap="square" stroke-width="1.0" width="10" x="408" y="521"/>
   <text fill="rgb(64, 64, 64)" font-family="Courier 10 Pitch" font-size="12" x="340.0" y="526.0">IGUALDADE</text>
   <rect fill="rgb(0, 0, 0)" height="20" stroke="none" stroke-linecap="square" stroke-width="1.0" width="200" x="208" y="552"/>
   <rect fill="none" height="60" stroke="rgb(0, 0, 0)" stroke-linecap="square" stroke-width="2.0" width="200" x="208" y="512"/>
   <text fill="rgb(255, 255, 255)" font-family="Courier 10 Pitch" font-size="14" font-weight="bold" x="232.0" y="566.0">circuito_comparador</text>
   <text fill="rgb(0, 0, 0)" font-family="SansSerif" font-size="12" font-style="italic" font-weight="bold" x="260.0" y="587.0">COMPARADOR</text>
   <circle cx="198.0" cy="522.0" fill="rgb(0, 0, 0)" r="2.0" stroke="none" stroke-width="1.0"/>
   <circle cx="198.0" cy="542.0" fill="rgb(0, 0, 0)" r="2.0" stroke="none" stroke-width="1.0"/>
   <circle cx="418.0" cy="522.0" fill="rgb(0, 0, 0)" r="2.0" stroke="none" stroke-width="1.0"/>
   <rect fill="none" height="18" stroke="rgb(0, 0, 0)" stroke-linecap="square" stroke-width="2.0" width="38" x="60" y="374"/>
   <text fill="rgb(0, 0, 0)" font-family="SansSerif" font-size="12" x="71.0" y="388.0">x4</text>
   <text fill="rgb(0, 0, 0)" font-family="SansSerif" font-size="10" font-weight="bold" x="23.0" y="387.0">NOVO</text>
   <circle cx="98.0" cy="382.0" fill="rgb(0, 0, 0)" r="2.0" stroke="none" stroke-width="2.0"/>
   <rect fill="none" height="18" stroke="rgb(0, 0, 0)" stroke-linecap="square" stroke-width="2.0" width="38" x="60" y="514"/>
   <text fill="rgb(0, 0, 0)" font-family="SansSerif" font-size="12" x="71.0" y="528.0">x4</text>
   <text fill="rgb(0, 0, 0)" font-family="SansSerif" font-size="10" font-weight="bold" x="20.0" y="527.0">CHUTE</text>
   <circle cx="98.0" cy="522.0" fill="rgb(0, 0, 0)" r="2.0" stroke="none" stroke-width="2.0"/>
   <polyline fill="none" points="858,79 858,82 858,102" stroke="rgb(0, 0, 0)" stroke-linecap="square" stroke-width="3.0"/>
   <polygon fill="none" points="849,77 849,53 858,43 867,53 867,77" stroke="rgb(0, 0, 0)" stroke-linecap="square" stroke-width="2.0"/>
   <text fill="rgb(0, 0, 0)" font-family="Monospaced" font-size="12" transform="rotate(90.0,852.0,48.0)" x="852.0" y="48.0">x1</text>
   <text fill="rgb(0, 0, 0)" font-family="Monospaced" font-size="12" font-style="italic" font-weight="bold" x="827.0" y="37.0">ACERTOU</text>
   <circle cx="858.0" cy="82.0" fill="rgb(0, 0, 0)" r="2.0" stroke="none" stroke-width="2.0"/>
   <rect fill="none" height="41" stroke="rgb(0, 0, 0)" stroke-linecap="square" stroke-width="3.0" width="70" x="208" y="371"/>
   <text fill="rgb(0, 0, 0)" font-family="Standard Symbols PS" font-size="30" font-style="italic" font-weight="bold" x="233.0" y="400.0">D</text>
   <text fill="rgb(0, 0, 0)" font-family="SansSerif" font-size="12" font-weight="bold" x="206.0" y="368.0">DIFERENCA</text>
   <circle cx="208.0" cy="382.0" fill="rgb(0, 0, 0)" r="2.0" stroke="none" stroke-width="1.0"/>
   <circle cx="208.0" cy="402.0" fill="rgb(0, 0, 0)" r="2.0" stroke="none" stroke-width="1.0"/>
   <circle cx="278.0" cy="392.0" fill="rgb(0, 0, 0)" r="2.0" stroke="none" stroke-width="1.0"/>
   <path d="M873.0,117.0 A15.0,15.0 0.0 0,0 843.0,117.0" fill="none" stroke="rgb(0, 0, 0)" stroke-width="2.0"/>
   <polyline fill="none" points="843,117 843,131 873,131 873,117" stroke="rgb(0, 0, 0)" stroke-linecap="square" stroke-width="2.0"/>
   <path d="M483.0,117.0 A15.0,15.0 0.0 0,0 453.0,117.0" fill="none" stroke="rgb(0, 0, 0)" stroke-width="2.0"/>
   <polyline fill="none" points="453,117 453,131 483,131 483,117" stroke="rgb(0, 0, 0)" stroke-linecap="square" stroke-width="2.0"/>
   <path d="M643.0,117.0 A15.0,15.0 0.0 0,0 613.0,117.0" fill="none" stroke="rgb(0, 0, 0)" stroke-width="2.0"/>
   <polyline fill="none" points="613,117 613,131 643,131 643,117" stroke="rgb(0, 0, 0)" stroke-linecap="square" stroke-width="2.0"/>
   <rect fill="none" height="18" stroke="rgb(0, 0, 0)" stroke-linecap="square" stroke-width="2.0" width="78" x="430" y="34"/>
   <text fill="rgb(0, 0, 0)" font-family="SansSerif" font-size="12" x="461.0" y="48.0">x8</text>
   <circle cx="468.0" cy="52.0" fill="rgb(0, 0, 0)" r="2.0" stroke="none" stroke-width="2.0"/>
   <rect fill="none" height="18" stroke="rgb(0, 0, 0)" stroke-linecap="square" stroke-width="2.0" width="78" x="590" y="34"/>
   <text fill="rgb(0, 0, 0)" font-family="SansSerif" font-size="12" x="621.0" y="48.0">x8</text>
   <circle cx="628.0" cy="52.0" fill="rgb(0, 0, 0)" r="2.0" stroke="none" stroke-width="2.0"/>
   <text fill="rgb(0, 0, 0)" font-family="SansSerif" font-size="12" x="455.0" y="21.0">red</text>
   <text fill="rgb(0, 0, 0)" font-family="SansSerif" font-size="12" x="615.0" y="24.0">blue</text>
   <polyline fill="none" points="123,262 128,262 168,262 168,192 188,192" stroke="rgb(0, 0, 0)" stroke-linecap="square" stroke-width="3.0"/>
   <polygon fill="none" points="89,253 113,253 123,262 113,271 89,271" stroke="rgb(0, 0, 0)" stroke-linecap="square" stroke-width="2.0"/>
   <text fill="rgb(0, 0, 0)" font-family="Monospaced" font-size="12" x="94.0" y="268.0">x1</text>
   <text fill="rgb(0, 0, 0)" font-family="Monospaced" font-size="12" font-weight="bold" x="5.0" y="268.0">CONFIRMAR</text>
   <circle cx="128.0" cy="262.0" fill="rgb(0, 0, 0)" r="2.0" stroke="none" stroke-width="2.0"/>
   <text fill="rgb(0, 0, 0)" font-family="SansSerif" font-size="12" font-style="italic" font-weight="bold" x="246.0" y="169.0">1 para 8 BITS</text>
   <rect fill="rgb(0, 0, 0)" height="3" stroke="none" stroke-linecap="square" stroke-width="1.0" width="10" x="188" y="191"/>
   <text fill="rgb(64, 64, 64)" font-family="Courier 10 Pitch" font-size="12" x="203.0" y="196.0">ENTRADA</text>
   <rect fill="rgb(0, 0, 0)" height="4" stroke="none" stroke-linecap="square" stroke-width="1.0" width="10" x="398" y="190"/>
   <text fill="rgb(64, 64, 64)" font-family="Courier 10 Pitch" font-size="12" x="358.0" y="196.0">SAIDA</text>
   <rect fill="rgb(0, 0, 0)" height="20" stroke="none" stroke-linecap="square" stroke-width="1.0" width="200" x="198" y="202"/>
   <rect fill="none" height="40" stroke="rgb(0, 0, 0)" stroke-linecap="square" stroke-width="2.0" width="200" x="198" y="182"/>
   <text fill="rgb(255, 255, 255)" font-family="Courier 10 Pitch" font-size="14" font-weight="bold" x="218.0" y="216.0">subcircuito_extensor</text>
   <text fill="rgb(0, 0, 0)" font-family="SansSerif" font-size="16" font-weight="bold" x="231.0" y="240.0">sinal_extendido</text>
   <circle cx="188.0" cy="192.0" fill="rgb(0, 0, 0)" r="2.0" stroke="none" stroke-width="1.0"/>
   <circle cx="408.0" cy="192.0" fill="rgb(0, 0, 0)" r="2.0" stroke="none" stroke-width="1.0"/>
</svg>
